<?xml version="1.0" encoding="UTF-8"?>
<svg id="Layer_1" data-name="Layer 1" xmlns="http://www.w3.org/2000/svg" viewBox="0 0 500 500">
  <defs>
    <style>
      .cls-1 {
        fill: #edddb4;
      }

      .cls-2 {
        fill: #02329e;
      }

      .cls-3 {
        fill: #1c1924;
      }

      .cls-4 {
        fill: #a5200e;
      }

      .cls-5 {
        fill: #fff;
      }

      .cls-6 {
        fill: #cd280c;
      }

      .cls-7 {
        fill: #f6d204;
      }

      .cls-8 {
        fill: #062a5e;
      }

      .cls-9 {
        fill: #f2a408;
      }
    </style>
  </defs>
  <path class="cls-8" d="M360.81,251.29c4.67-.55,9.36-1.1,13.94-2.17,13.15-3.09,24.86-10.38,36.3-17.55,6.59-4.13,13.36-8.42,17.85-14.78.98-1.39,1.86-2.88,3.17-3.96,2.12-1.74,5.05-2.13,7.42-3.51,1.86-1.08,3.32-2.73,4.69-4.39,15.35-18.61,24.19-42.48,24.64-66.6.1-5.04-.24-10.35-2.94-14.61-.27-.42-.59-.86-1.06-1.03-.92-.33-1.83.51-2.39,1.32-3.03,4.37-3.55,9.94-4.5,15.17-2.03,11.16-6.46,21.88-12.91,31.21,1.89-7.81,3.79-15.62,5.68-23.43,1.81-7.46,3.34-16.23-1.65-22.06-1.6-1.87-4.37-3.27-6.49-2.02-1.45.85-2.05,2.61-2.5,4.24-4.82,17.29-5.7,35.88-13.85,51.87,3.86-24.21,3.62-28.67.42-33.8-.66-1.06-1.49-1.75-2.65-2.19-1.78-.68-2.98,1.86-3.13,3.77-1.01,13.16-2.83,26.47-4.33,38.91-1.24-8.75.52-12.3-.71-21.05-.27-1.92-3.8-9.39-5.6-10.11-1.83-.73-3.93.73-4.67,2.56-.73,1.83-.5,3.88-.36,5.85,1.04,14.87-4.38,30.08-14.58,40.94-.08-6.94-.17-13.89-.25-20.83-.02-2.03-.86-4.8-2.86-4.49-1.13.17-1.8,1.33-2.23,2.39-3.45,8.43-2.54,18.69-8.16,25.86-.79-1.32-.62-2.97-.87-4.49-.25-1.52-1.36-3.2-2.88-3-1.67.22-2.19,2.34-2.41,4.02-1,7.74-4.06,15.2-8.78,21.42-.16-2.79-1.91-5.42-4.42-6.65-2.41,6.79-6.12,13.11-10.87,18.53-1.5-1.58-2.35-3.77-2.31-5.95-.68-.73-1.83.17-2.4,1-3.28,4.84-6.57,9.68-9.85,14.51-1.11,1.63-2.26,3.62-1.56,5.46.97,2.53,4.45,2.66,7.15,2.35,7.64-.9,15.28-1.79,22.92-2.69Z"/>
  <path class="cls-9" d="M400.71,215.96c.95.51,1.94-.59,2.49-1.52,3.15-5.4,7-10.39,11.43-14.79,2.36-2.35,5.28-4.68,8.6-4.44-.49,4.01-.99,8.02-1.48,12.03,1.44-5.5,6.85-9.71,12.54-9.74.73,2.39.72,4.99-.03,7.37,2.6-3.57,7.23-5.54,11.6-4.94.33,1.27.44,2.6.32,3.9,1.85.19,3.66-.5,5.43-1.06,1.77-.57,3.71-1.02,5.46-.39,1.75.63,3.06,2.77,2.17,4.4-.32.59-.87,1.03-1.4,1.44-17.09,13.39-34.76,27.07-55.62,33.06-5.72,1.64-11.6,2.68-17.47,3.71-3.66.64-7.32,1.29-10.98,1.93-3.28.58-6.57,1.15-9.9,1.35-6.2.37-12.47-.59-18.6.37,3.84-2.35,7.26-5.4,10.01-8.97,1-1.3,1.94-2.68,3.25-3.66,1.31-.98,3.12-1.49,4.61-.8,1.48.69,2.21,2.87,1.09,4.07.5-1.19,1.11-2.47,2.27-3.03s2.95.19,2.82,1.48c3.33-7.07,7.18-13.89,11.5-20.4.66-.99,1.46-2.06,2.64-2.24,2.1-.32,3.38,2.43,3.04,4.52-.34,2.09-1.54,4.06-1.38,6.18.43-2.7.87-5.46,2.17-7.86,1.3-2.4,3.64-4.42,6.37-4.58.46,1.7.93,3.4,1.39,5.1.31-1.14.66-2.34,1.5-3.18s2.34-1.14,3.2-.32c.35.33.56.81.98,1.03Z"/>
  <path class="cls-4" d="M427.3,225.56c3.44-5.48,10.83-8.09,16.95-6,.14,3.28-1.27,6.59-3.73,8.77,3.6-2.27,8.85-1.37,11.49,1.98-3.98,3.32-9.37,4.22-14.41,5.43-11.86,2.86-23.02,8.08-34.75,11.41-15.73,4.47-32.44,5.47-48.59,2.92,3.94-2.01,8.27-3.1,12.56-4.17,8.16-2.03,16.32-4.07,24.59-5.54,3.69-.66,7.67-1.34,10.29-4.01,1.81-1.85,2.69-4.39,3.9-6.68s3.06-4.55,5.62-4.93c2.56-.38,5.43,2.29,4.33,4.63,2.53-5.75,7.59-10.32,13.57-12.26.29,2.91-.36,5.91-1.82,8.45Z"/>
  <g>
    <path class="cls-3" d="M211.24,341.01c-1.69.14-3.43.16-5.02-.44s-2.99-1.91-3.27-3.58c-.28-1.67.9-3.57,2.58-3.71.02-.42-.54-.59-.96-.57-3.11.13-5.78,3.17-5.53,6.26s3.39,5.65,6.47,5.28c-2.18.3-4.42.18-6.56-.36-2-.5-4.19-1.73-4.38-3.78-1.09,1.31-1.48,3.18-.99,4.82s1.83,2.99,3.46,3.49c.97.3,2.01.3,3.03.25,1.75-.1,3.5-.38,5.19-.85-.91,1.17-2.22,2.01-3.66,2.37,2.69.57,5.53,0,8.03-1.15,2.5-1.14,4.72-2.81,6.89-4.51,8.11-6.39,15.82-13.58,21.04-22.5.43-.74.86-1.52.89-2.38s-.45-1.79-1.29-1.99c-.99,2.36-2.49,4.47-3.98,6.55-3.41,4.79-6.87,9.63-11.36,13.41,1.03-1.32,1.79-2.85,2.22-4.47.28-1.05.41-2.22-.1-3.18-.3-.57-.79-1.01-1.33-1.37-1.18-.8-2.69-1.24-4.06-.82s-2.43,1.89-2.08,3.27c.59-1.12,2.24-1.5,3.26-.75.8.59,1.11,1.66,1.14,2.66.07,1.87-.65,3.76-1.95,5.11-1.95,2.02-4.9,2.68-7.7,2.92Z"/>
    <path class="cls-3" d="M235.46,345.63c-1.59.13-3.23.15-4.73-.41-1.49-.56-2.82-1.8-3.08-3.37-.26-1.57.85-3.36,2.43-3.49.02-.4-.51-.55-.9-.54-2.93.13-5.45,2.98-5.21,5.9.24,2.92,3.19,5.33,6.1,4.97-2.06.28-4.17.17-6.18-.34-1.88-.47-3.95-1.63-4.13-3.56-1.03,1.23-1.39,3-.94,4.54.46,1.54,1.72,2.82,3.26,3.29.92.28,1.9.29,2.85.23,1.65-.09,3.29-.36,4.89-.8-.86,1.1-2.09,1.9-3.45,2.23,2.53.54,5.21,0,7.57-1.08,2.36-1.07,4.45-2.64,6.49-4.25,7.64-6.02,14.9-12.8,19.82-21.19.41-.7.81-1.44.84-2.24.03-.81-.43-1.69-1.21-1.87-.94,2.22-2.35,4.21-3.75,6.17-3.21,4.51-6.47,9.07-10.7,12.64.97-1.24,1.69-2.68,2.09-4.21.26-.99.38-2.09-.09-3-.28-.53-.75-.95-1.25-1.29-1.11-.75-2.54-1.17-3.82-.78s-2.29,1.78-1.96,3.08c.55-1.06,2.11-1.41,3.07-.7.76.56,1.04,1.57,1.08,2.51.06,1.76-.62,3.54-1.84,4.81-1.84,1.9-4.62,2.53-7.26,2.75Z"/>
    <path class="cls-2" d="M141.96,304.58c-9.1-1.97-18.76-1.27-27.47,2-.45.17-.94.4-1.08.85-.14.46.47,1.01.8.66-7.56,1.65-14.87,4.41-21.63,8.17-2.21,1.23-4.68,3.29-4.04,5.74,14.87-3.81,29.59-8.19,44.12-13.12,3.25-1.1,6.54-2.26,9.31-4.29Z"/>
    <path class="cls-2" d="M134.69,311.48c3.35-.1,6.61-.99,9.85-1.82,24.45-6.31,49.57-10.03,74.81-11.08.88-.04,2.06-.41,1.94-1.27-.05-.39.55-3.05.25-3.3-2.79-2.27-6.72-2.25-10.29-2.65-1.63-.18-3.27.07-4.88.31-11.68,1.78-23.36,3.55-35.04,5.33-3.38.51-6.76,1.03-10.1,1.77-8.94,1.97-17.52,5.55-25.22,10.51-.78.51-1.67,1.34-1.31,2.2Z"/>
    <path class="cls-6" d="M200.63,293.71c2.88-1.05,6.02-2.6,6.9-5.54-12.85-1.38-25.82.59-38.73.03-4.19-.18-8.38-.63-12.57-.66-4.37-.03-8.73.38-13.07.9-18.99,2.27-37.74,6.5-55.87,12.59-4.77,1.6-9.91,3.69-12.25,8.14,8.63,2,17.62,1.4,26.45.78,11.47-.8,22.94-1.59,34.4-2.39,4.04-.28,8.1-.56,12.1-1.17,3.6-.55,7.15-1.35,10.7-2.16,6.7-1.52,13.4-3.05,20.1-4.57,7.36-1.67,14.74-3.35,21.83-5.95Z"/>
    <path class="cls-6" d="M205.25,288.73c1.82-.28,3.71-.6,5.21-1.67,1.5-1.07,2.44-3.15,1.64-4.81-10.87,3-22.13,4.59-33.4,4.73-4.94.06-9.89-.15-14.82.18-6.09.41-12.09,1.66-18.1,2.76-16.88,3.08-33.97,4.98-51.12,5.68-12.4.51-24.97.4-36.98,3.54-2.63.69-5.56,1.84-6.46,4.41,7.5,1.41,15.18,1.49,22.82,1.43,13.84-.12,27.7-.7,41.43-2.41,5.29-.66,10.55-1.48,15.82-2.3,4.88-.76,9.75-1.52,14.63-2.28,12.66-1.97,25.32-3.95,37.99-5.92,7.12-1.11,14.24-2.22,21.36-3.33Z"/>
    <path class="cls-2" d="M210.32,280.92c-5.25.66-10.51,1.33-15.79,1.57-5.01.23-10.03.09-15.04-.13-21.9-.97-43.73-3.38-65.31-7.23-.37.73-.45,1.6-.23,2.38,3.66,3.95,9.46,4.87,14.81,5.54,28.84,3.6,58.39,6.21,86.76-.15,2.8-.63,5.77-1.45,7.67-3.61-4.28.54-8.57,1.08-12.85,1.62Z"/>
    <path class="cls-2" d="M109.66,295.34c9.82.43,19.68.76,29.47-.05,6.44-.54,12.82-1.57,19.2-2.6,17.85-2.89,35.7-5.78,53.55-8.67,1.15-.19,2.58-.68,2.63-1.84-41.1,2.78-82.31,4.03-123.51,3.75-3.16-.02-6.41-.04-9.38,1.06,1.61,3.57,5.66,5.31,9.46,6.25,6.06,1.51,12.34,1.82,18.58,2.09Z"/>
    <path class="cls-6" d="M428.31,257.25c-3.12-6-7.67-11.24-13.17-15.18-.69,1.57-10.33-1.08-11.99-1.49-14.74-3.67-24.54,5.51-39.66,6.91-11.49,1.07-49.35,3.17-60.6,5.69-43.51,9.74-59.34,12.31-98.1,34.34-1.34.76-2.88,2.19-2.15,3.55.38.7,1.22.98,1.98,1.19,3.35.91,6.77,1.55,10.22,1.92-.75.2-1.32.96-1.3,1.74,8.32,4.01,16.69,7.96,25.18,11.62-.35.6-.7,1.19-1.06,1.79-1.1,1.86-2.21,3.77-2.62,5.89-.3,1.57-.07,3.46,1.27,4.34.7.46,1.57.55,2.4.51,1.3-.06,2.57-.42,3.82-.78,5.02-1.43,10.04-2.86,15.07-4.28,1.33.47,2.66.93,3.99,1.38-.87,2.68-3.69,5.35-2.47,7.91.76,1.59,2.82,2.16,4.56,1.88,1.74-.28,3.31-1.18,4.97-1.79,3.28-1.2,7.09-1.33,10.03-3.03,17.87,4.33,36.48,5.96,54.56,2.88,8.55-1.45,16.9-3.94,25.01-7,10.16-3.82,19.96-8.53,29.75-13.24,4.27-2.05,8.57-4.12,12.38-6.95,3.02-2.24,5.68-4.92,8.68-7.18,4.3-3.24,9.23-5.58,13.5-8.85s8.02-7.83,8.45-13.2c.3-3.68-1-7.32-2.71-10.6Z"/>
    <path class="cls-5" d="M384.76,260.8c-1.01,3.64-1.89,7.38-1.63,11.15.26,3.77,1.82,7.61,4.88,9.82-.71.32-1.52.44-2.29.34,1.19,3.23,3.8,5.81,6.82,7.48,3.02,1.67,6.43,2.5,9.84,3,2.27.33,4.6.53,6.86.12,4.55-.81,8.56-4.18,10.14-8.53-2.25-.63-4.04-2.66-4.38-4.96.69-.27,1.05-1.19.71-1.85.45-.01.89-.03,1.34-.04.9-5.22.37-10.75-1.95-15.51s-6.49-8.69-11.54-10.28c-5.05-1.59-10.93-.66-14.98,2.76-1.01.85-1.9,1.85-2.54,3.01-.6,1.09-.95,2.3-1.28,3.5Z"/>
    <path class="cls-3" d="M405.35,292.88c-.06.36-.1.74.06,1.06.15.29.44.48.73.64,4.36,2.48,9.9,2.76,14.48.72,1.58-.7,3.2-1.89,3.39-3.61.17-1.52-.84-2.9-1.79-4.1-1.83-2.32-3.75-4.7-6.38-6.06-.6-.31-1.28-.57-1.94-.42-.55.12-.99.51-1.41.88-1.62,1.43-3.25,2.88-4.52,4.63-1.34,1.84-2.24,3.99-2.62,6.24Z"/>
    <path class="cls-1" d="M416.09,276.48c1.19-1.3,2.55-2.48,4.14-3.25,1.57-.77,3.33-1.13,5.08-1.04.72.04,1.44.15,2.08.48,1.06.54,1.78,1.6,2.14,2.73.44,1.37.42,2.85.39,4.29-.08,4.3-.17,8.63-1.18,12.81-1.01,4.18-3.03,8.24-6.37,10.95,1.11-3.09.61-6.59-.76-9.58-1.36-2.99-3.52-5.54-5.79-7.91-.77-.8-1.57-1.62-1.97-2.65-.91-2.35.53-4.96,2.23-6.82Z"/>
    <path class="cls-3" d="M406.31,266.69c-.14,1.56-1.9,2.62-3.44,2.38-1.36-.21-2.53-1.24-3.06-2.51s-.45-2.75.06-4.03c.77-.1,1.54-.2,2.31-.3.7-.09,1.43-.17,2.07.11.97.43,1.42,1.53,1.74,2.54.19.59.37,1.19.32,1.81Z"/>
  </g>
  <path class="cls-2" d="M167.81,218.36c2.18,1.3,4.86,3.22,4.19,5.66-4.37,0-8.73.01-13.1.02,3.34,6.99,10.33,12.1,18,13.16-2.42.91-4.83,1.83-7.25,2.74-.88,2.22,1.55,4.25,3.63,5.42,4.94,2.76,9.88,5.52,14.82,8.28-3.32-.76-7,.36-9.35,2.82,9.81,5.26,20.57,8.76,31.6,10.29-2.19.66-3.97,2.54-4.52,4.77,3.92,1.4,7.84,2.79,11.77,4.19-.78.67-1.56,1.34-2.34,2.01,6.24,2.77,12.47,5.54,18.71,8.31-1.39,1.66-.27,4.41,1.64,5.44,1.91,1.03,4.21.85,6.37.64-.21,1.61-.42,3.21-.63,4.82,4.24,1.85,8.8,2.96,13.41,3.26-.8,1.7-1.6,3.39-2.4,5.09,3.07.68,6.22-.44,9.17-1.55,4.86-1.83,9.73-3.66,14.59-5.48.6-.22,1.24-.49,1.55-1.05.54-1-.32-2.17-1.16-2.93-4.09-3.7-9.15-6.12-13.58-9.4-5.57-4.12-10.05-9.51-14.44-14.87-3.97-4.85-7.96-9.76-10.79-15.36-6.28-12.39-6.42-26.97-4.91-40.78,1.5-13.81,4.5-27.54,3.98-41.42-.09-2.31-.28-4.65-1.1-6.81-1.39-3.64-4.4-6.37-7.09-9.19-14.44-15.14-21.47-36.05-24.09-56.81-.93-7.33-2.26-16.07-8.98-19.14-10.46,21.75-5.45,47.43-.22,71-4.15-2.3-5.93-7.23-7.39-11.75-2.17-6.75-4.35-13.5-6.52-20.25-2.56.14-3.62,3.31-3.95,5.86-2.46,19.02-.54,38.59,5.56,56.76-6.14-2.61-11.43-7.19-14.88-12.9-1.27,5.81-.6,12.03,1.89,17.44-2.57-1.42-5.49-2.18-8.43-2.19.95,5.46,3.44,10.65,7.12,14.79-3.73-.9-7.47-1.8-11.2-2.7-1.15-.28-2.38-.55-3.49-.12-3.03,1.18-2.07,5.75-.28,8.46,3.61,5.46,8.47,10.09,14.1,13.44Z"/>
  <path class="cls-7" d="M288.61,292.27c.51-6.79-3.93-12.8-7-18.87-10.35-20.48-5.81-45.24-11.37-67.5-.56-2.23-1.23-4.46-2.36-6.46-1.01-1.77-2.37-3.32-3.69-4.88-9.51-11.24-17.57-23.72-23.9-37.02-1.47-3.08-3.22-6.54-6.5-7.46-.46-.13-.99-.2-1.41.05-.7.41-.69,1.41-.6,2.22.45,3.88.9,7.76,1.36,11.64-1.69-1.08-3.38-2.17-5.07-3.25.3,5.75,1.15,11.48,2.55,17.07-3.44,1.17-6.7-2-9.02-4.81-2.32-2.81-5.8-5.85-9.13-4.39-2.61,3.91-3.21,8.88-2.62,13.54s2.28,9.1,3.96,13.49c-2.39-.91-4.78-1.83-7.16-2.74-.64,2.67.17,5.65,2.07,7.63-1.8-.8-3.75-1.25-5.72-1.34.2,1.83.67,3.62,1.39,5.31-5.3-.19-11.67,2.36-12.28,7.63-.48,4.15,2.86,7.7,6.12,10.31,3,2.4,6.16,4.6,9.45,6.58-2.1-.33-4.28-.09-6.26.67,1.57,1.96,3.46,3.65,5.57,5-1.26-.22-2.6-.44-3.8.03-1.2.46-2.12,1.87-1.59,3.04.22.48.64.84,1.04,1.18,2.74,2.3,5.48,4.6,8.23,6.9-1.6-1.04-3.77,1-3.55,2.9s1.82,3.31,3.37,4.42c5.56,3.98,12.04,6.77,18.82,7.62-3.18-.08-6.35,1.72-7.89,4.51,4.18,1.81,8.29,3.79,12.3,5.94-1.93.81-3.85,1.62-5.78,2.43-.45,1.69,1.14,3.2,2.61,4.15,5.61,3.62,12.18,5.75,18.86,6.11-1.75,2.27-5.65,3.7-4.95,6.48.35,1.38,1.79,2.17,3.13,2.65,3.33,1.2,6.95,1.58,10.46,1.1-.61,1.11-.76,2.46-.42,3.68,4.48.42,9.06-.21,13.27-1.81-.1,1.17-.2,2.34-.3,3.52,4.81-.03,9.62-.88,14.15-2.51.88-.32,1.78-.68,2.43-1.35.85-.89,1.15-2.17,1.24-3.39Z"/>
  <path class="cls-4" d="M246.69,245.56c-1.45-.13-2.76-1.28-3.07-2.7,1.85-.91,3.99-1.24,6.03-.92-.56-2.36-2.09-4.41-2.69-6.76s.29-5.47,2.67-5.91c1.91-.35,4.09,1.14,5.68.05-3.96-3.91-6.35-9.37-6.52-14.93,2.52-.63,5.15-.85,7.74-.67-1.15-2.94-2.3-5.87-3.44-8.81,2.3-.69,4.83-.6,7.07.25-.12-3.58-.24-7.16-.36-10.74-.04-1.29.01-2.8,1.05-3.57,1.32-.98,3.25,0,4.23,1.32.98,1.32,1.53,2.98,2.78,4.05.95-1.28,2.24-2.41,3.81-2.73,1.56-.32,3.4.39,3.99,1.88.36.91.22,1.94.07,2.92-.44,2.86-.88,5.72-1.31,8.58,2.08-3.04,5.81-4.88,9.48-4.66-2.84,17.21,2.45,34.61,7.68,51.26.69,2.2,1.4,4.44,2.78,6.28,2.51,3.36,7.22,4.88,11.22,3.63.32-1.48-.67-3.13-2.14-3.53,5.66-1.58,11.8-1.44,17.38.39.59,5.05,1.01,10.22-.12,15.18s-4.05,9.74-8.62,11.97c-3.2,1.56-6.99,1.79-9.96,3.75-1.21.8-2.23,1.86-3.34,2.81-4.98,4.28-11.82,6.32-18.33,5.46-.44-2.87,2.76-4.81,5.44-5.91-1.65.31-3.46.59-4.92-.23-1.47-.82-2.05-3.23-.63-4.13-7.91-.04-15.79-2.8-22-7.71-.05-.49-.09-.98-.14-1.47,1.65-.69,3.3-1.38,4.95-2.06-4.17,1.2-9.05-1.63-10.09-5.85,1.08-.32,2.15-.64,3.22-.96-3.59-.84-6.38-4.31-6.44-8,1,.07,2.01.14,3.01.21-7.01-2.86-12.12-9.9-12.66-17.45,2.14-.35,4.32-.45,6.47-.29Z"/>
</svg>