<?xml version="1.0" encoding="UTF-8"?>
<svg id="Layer_1" data-name="Layer 1" xmlns="http://www.w3.org/2000/svg" viewBox="0 0 500 500">
  <defs>
    <style>
      .cls-1 {
        fill: #edddb4;
      }

      .cls-2 {
        fill: #02329e;
      }

      .cls-3 {
        fill: #1c1924;
      }

      .cls-4 {
        fill: #a5200e;
      }

      .cls-5 {
        fill: #fff;
      }

      .cls-6 {
        fill: #cd280c;
      }

      .cls-7 {
        fill: #f6d204;
      }

      .cls-8 {
        fill: #062a5e;
      }

      .cls-9 {
        fill: #f2a408;
      }
    </style>
  </defs>
  <path class="cls-8" d="M337.65,278.01c1.03-4.24,2.1-8.5,4.03-12.41,1.61-3.26,3.79-6.21,5.96-9.13,2.98-4.02,5.96-8.05,8.95-12.07,1.67-2.25,3.38-4.54,5.63-6.22,2.38-1.77,5.23-2.76,8.04-3.72,4.77-1.62,9.61-3.2,14.63-3.62,4.73-.39,10.41.94,12.09,5.37,1.47,3.88-.86,8.05-2.81,11.72-2.22,4.17-4.03,8.56-5.41,13.08-1.19,3.9-2.06,7.9-2.81,11.91-4.34,22.98-5.18,46.62-2.49,69.85-4.22-1.81-7.27-5.69-9.05-9.92-1.78-4.23-2.46-8.82-3.12-13.36.79,5.09,1.57,10.18,2.36,15.27.14.92.28,1.9-.13,2.74-.5,1.05-1.74,1.57-2.9,1.6-3.83.1-6.32-3.86-8.01-7.29-2.19-4.44-4.37-8.89-6.56-13.33-.26,4.8.04,9.63.88,14.37-1.24,1.43-3.71,1-5.05-.34-1.34-1.34-1.86-3.27-2.43-5.08s-1.32-3.71-2.89-4.76c-.07,1.73-.17,3.54-1.01,5.05s-2.68,2.63-4.32,2.06c-1.17-.41-1.93-1.53-2.55-2.61-4.15-7.31-5.51-15.95-5.2-24.35.31-8.4,2.19-16.66,4.17-24.83Z"/>
  <path class="cls-9" d="M399.58,225.87c-1.05.56-2.09,1.11-3.14,1.67,3.65,1.01,7.36,2.04,10.57,4.06s5.89,5.2,6.38,8.96c-2.99-.43-5.87-1.57-8.35-3.29,2.35,2.63,3.22,6.5,2.24,9.88-4.8-1.01-7.42-6.09-11.33-9.05-3.8-2.87-8.81-3.67-13.57-3.45-8.87.39-17.36,3.93-24.88,8.65-7.52,4.72-14.22,10.61-21.08,16.26-.72.59-1.55,1.22-2.48,1.12-.78-.08-1.42-.66-1.94-1.25-3.55-3.95-5.15-9.58-4.21-14.81.27-1.48,1.37-3.29,2.79-2.79.55.88,1.11,1.76,1.67,2.64-.48-3.19,0-6.52,1.38-9.44.29-.61.7-1.27,1.36-1.39.66-.13,1.37.76.87,1.22,1.44-1.87,3.05-3.61,4.8-5.2.46.83.92,1.65,1.38,2.48,4.64-4.73,11.25-7.46,17.88-7.38-.4,1.33-1.01,2.6-1.8,3.75,4.3-3.67,9.91-5.76,15.56-5.81-.49.54-.98,1.08-1.48,1.62,5.03-2.29,10.81-2.88,16.2-1.65-1.03.44-2.05.87-3.08,1.31,4.81-.63,9.77.04,14.24,1.91Z"/>
  <path class="cls-4" d="M358.29,255.91c-1.47,2.17-2.83,4.49-4.87,6.14-5.09,4.12-12.51,2.82-18.88,1.31-1.06-.25-2.17-.53-2.97-1.27-.65-.6-1.01-1.45-1.29-2.29-.85-2.56-1.07-5.34-.62-8,1.42-.13,2.84-.27,4.26-.4-1.13-3-.73-6.77,1.68-8.88,2.41-2.11,6.89-1.58,8.12,1.38.02-3.13.33-6.81,2.99-8.46,3.24-2.01,7.33.48,10.3,2.86.07-1.28.13-2.56.2-3.85,1.49-.07,3,.33,4.27,1.12-.97-1.16-.94-3.04.07-4.17,1.01-1.13,2.87-1.37,4.13-.53.47.31.9.77,1.46.84.69.08,1.28-.43,1.82-.87,1.87-1.54,4.3-2.55,6.71-2.23,2.4.32,4.66,2.22,4.89,4.64,1.22-3.14,4.72-5.23,8.06-4.81.3.65.42,1.38.33,2.09,1.53-.68,3.14-1.37,4.81-1.21s3.34,1.52,3.21,3.19c-15.45,1.76-29.96,10.53-38.69,23.4Z"/>
  <g>
    <path class="cls-3" d="M210.57,341.57c-1.69.14-3.43.16-5.02-.44-1.58-.59-2.99-1.91-3.27-3.58s.9-3.57,2.58-3.71c.02-.42-.54-.59-.96-.57-3.11.13-5.78,3.17-5.53,6.26s3.39,5.65,6.47,5.28c-2.18.3-4.42.18-6.56-.36-2-.5-4.19-1.73-4.38-3.78-1.09,1.31-1.48,3.18-.99,4.82s1.83,2.99,3.46,3.49c.97.3,2.01.3,3.03.25,1.75-.1,3.5-.38,5.19-.85-.91,1.17-2.22,2.01-3.66,2.37,2.69.57,5.53,0,8.03-1.15s4.72-2.81,6.89-4.51c8.11-6.39,15.82-13.58,21.04-22.5.43-.74.86-1.53.89-2.38s-.45-1.79-1.29-1.99c-.99,2.36-2.49,4.47-3.98,6.55-3.41,4.79-6.87,9.63-11.36,13.42,1.03-1.32,1.79-2.85,2.22-4.47.28-1.05.41-2.22-.1-3.18-.3-.57-.79-1.01-1.33-1.37-1.18-.8-2.69-1.24-4.06-.82s-2.43,1.89-2.08,3.27c.59-1.12,2.24-1.5,3.26-.75.8.59,1.11,1.66,1.14,2.66.07,1.87-.65,3.76-1.95,5.11-1.95,2.02-4.9,2.68-7.7,2.92Z"/>
    <path class="cls-3" d="M234.79,346.18c-1.59.13-3.23.15-4.73-.41-1.49-.56-2.82-1.8-3.08-3.37s.85-3.36,2.43-3.49c.02-.4-.51-.55-.9-.54-2.93.13-5.45,2.98-5.21,5.9.24,2.92,3.19,5.33,6.1,4.97-2.06.28-4.17.17-6.18-.34-1.88-.47-3.95-1.63-4.13-3.56-1.03,1.23-1.39,3-.94,4.54s1.72,2.82,3.26,3.29c.92.28,1.9.29,2.85.23,1.65-.09,3.29-.36,4.89-.8-.86,1.1-2.09,1.9-3.45,2.23,2.53.54,5.21,0,7.57-1.08,2.36-1.07,4.45-2.64,6.49-4.25,7.64-6.02,14.9-12.8,19.82-21.19.41-.7.81-1.44.84-2.24.03-.81-.43-1.69-1.21-1.87-.94,2.22-2.35,4.21-3.75,6.17-3.21,4.51-6.47,9.07-10.7,12.64.97-1.24,1.69-2.68,2.09-4.21.26-.99.38-2.09-.09-3-.28-.53-.75-.95-1.25-1.29-1.11-.75-2.54-1.17-3.82-.78s-2.29,1.78-1.96,3.08c.55-1.06,2.11-1.41,3.07-.7.76.56,1.04,1.57,1.08,2.51.06,1.76-.62,3.54-1.84,4.81-1.84,1.9-4.62,2.53-7.26,2.75Z"/>
    <path class="cls-2" d="M141.3,305.13c-9.1-1.97-18.76-1.27-27.47,2-.45.17-.94.4-1.08.85-.14.46.47,1.01.8.66-7.56,1.65-14.87,4.41-21.63,8.17-2.21,1.23-4.68,3.29-4.04,5.74,14.87-3.81,29.59-8.19,44.12-13.12,3.25-1.1,6.54-2.26,9.31-4.29Z"/>
    <path class="cls-2" d="M134.03,312.04c3.35-.1,6.61-.99,9.85-1.82,24.45-6.31,49.57-10.03,74.81-11.08.88-.04,2.06-.41,1.94-1.27-.05-.39.55-3.05.25-3.3-2.79-2.27-6.72-2.25-10.29-2.65-1.63-.18-3.26.07-4.88.31-11.68,1.78-23.36,3.55-35.04,5.33-3.38.51-6.76,1.03-10.1,1.77-8.94,1.97-17.52,5.55-25.22,10.51-.78.5-1.67,1.34-1.31,2.2Z"/>
    <path class="cls-6" d="M199.96,294.27c2.88-1.05,6.02-2.6,6.9-5.54-12.85-1.38-25.82.59-38.73.03-4.19-.18-8.38-.63-12.57-.66-4.37-.03-8.73.38-13.07.9-18.99,2.27-37.74,6.5-55.87,12.59-4.77,1.6-9.91,3.69-12.25,8.14,8.63,2,17.62,1.4,26.45.78,11.47-.8,22.94-1.59,34.4-2.39,4.04-.28,8.1-.56,12.1-1.17,3.6-.55,7.15-1.35,10.7-2.16,6.7-1.52,13.4-3.05,20.1-4.57,7.36-1.67,14.74-3.36,21.83-5.95Z"/>
    <path class="cls-6" d="M204.58,289.28c1.82-.28,3.71-.6,5.21-1.67s2.44-3.15,1.64-4.81c-10.87,3-22.13,4.59-33.4,4.73-4.94.06-9.89-.15-14.82.18-6.09.41-12.09,1.66-18.1,2.76-16.88,3.08-33.97,4.98-51.12,5.68-12.4.51-24.97.4-36.98,3.54-2.63.69-5.56,1.84-6.46,4.41,7.5,1.41,15.18,1.49,22.82,1.43,13.84-.12,27.7-.7,41.43-2.41,5.29-.66,10.55-1.48,15.82-2.3,4.88-.76,9.75-1.52,14.63-2.28,12.66-1.97,25.32-3.95,37.99-5.92,7.12-1.11,14.24-2.22,21.36-3.33Z"/>
    <path class="cls-2" d="M209.65,281.48c-5.25.66-10.51,1.33-15.79,1.57-5.01.23-10.03.09-15.04-.13-21.9-.97-43.73-3.38-65.31-7.23-.37.73-.45,1.6-.23,2.38,3.66,3.95,9.46,4.87,14.81,5.54,28.84,3.6,58.39,6.21,86.76-.15,2.8-.63,5.77-1.45,7.67-3.61-4.28.54-8.57,1.08-12.85,1.63Z"/>
    <path class="cls-2" d="M109,295.89c9.82.43,19.68.76,29.47-.05,6.44-.54,12.82-1.57,19.2-2.6,17.85-2.89,35.7-5.78,53.55-8.67,1.15-.19,2.58-.68,2.63-1.84-41.1,2.78-82.31,4.03-123.51,3.75-3.16-.02-6.41-.04-9.38,1.06,1.61,3.57,5.66,5.31,9.46,6.25,6.06,1.51,12.34,1.82,18.58,2.09Z"/>
    <path class="cls-6" d="M427.64,257.8c-3.12-6-7.67-11.24-13.17-15.18-.69,1.57-10.33-1.08-11.99-1.49-14.74-3.66-24.54,5.51-39.66,6.91-11.49,1.07-49.35,3.17-60.6,5.69-43.51,9.74-59.34,12.31-98.1,34.34-1.34.76-2.88,2.19-2.15,3.55.38.7,1.22.98,1.98,1.19,3.35.91,6.77,1.55,10.22,1.92-.75.2-1.32.96-1.3,1.74,8.32,4.01,16.69,7.96,25.18,11.62-.35.6-.7,1.19-1.06,1.79-1.1,1.86-2.21,3.77-2.62,5.89-.3,1.57-.07,3.46,1.27,4.34.7.46,1.57.55,2.4.51,1.3-.06,2.57-.42,3.82-.78,5.02-1.43,10.04-2.86,15.07-4.28,1.33.47,2.66.93,3.99,1.38-.87,2.68-3.69,5.35-2.47,7.91.76,1.59,2.82,2.16,4.56,1.88s3.31-1.18,4.97-1.79c3.28-1.2,7.09-1.33,10.03-3.03,17.87,4.33,36.48,5.96,54.56,2.88,8.55-1.45,16.9-3.94,25.01-7,10.16-3.82,19.96-8.53,29.75-13.24,4.27-2.05,8.57-4.12,12.38-6.95,3.02-2.24,5.68-4.92,8.68-7.18,4.3-3.24,9.23-5.58,13.5-8.85s8.02-7.83,8.45-13.2c.3-3.68-1-7.32-2.71-10.61Z"/>
    <path class="cls-5" d="M384.1,261.35c-1.01,3.64-1.89,7.38-1.63,11.15.26,3.77,1.82,7.61,4.88,9.82-.71.32-1.52.44-2.29.34,1.19,3.24,3.8,5.81,6.82,7.48,3.02,1.67,6.43,2.5,9.84,3,2.27.33,4.6.53,6.86.12,4.55-.81,8.56-4.18,10.14-8.53-2.25-.63-4.04-2.66-4.38-4.96.69-.27,1.05-1.19.71-1.85.45-.01.89-.03,1.34-.04.9-5.22.37-10.75-1.95-15.51-2.31-4.77-6.49-8.69-11.54-10.28-5.05-1.59-10.93-.66-14.98,2.76-1.01.85-1.9,1.85-2.54,3.01-.6,1.09-.95,2.3-1.28,3.5Z"/>
    <path class="cls-3" d="M404.69,293.43c-.06.35-.1.74.06,1.06.15.29.44.48.73.64,4.36,2.48,9.9,2.76,14.48.72,1.58-.7,3.2-1.89,3.39-3.61.17-1.52-.84-2.9-1.79-4.1-1.83-2.32-3.75-4.7-6.38-6.06-.6-.31-1.28-.57-1.94-.41-.55.12-.99.51-1.41.88-1.62,1.43-3.25,2.88-4.52,4.63-1.34,1.84-2.24,3.99-2.62,6.24Z"/>
    <path class="cls-1" d="M415.42,277.03c1.19-1.3,2.55-2.48,4.14-3.25,1.57-.77,3.33-1.13,5.08-1.04.72.04,1.44.15,2.08.48,1.06.54,1.78,1.6,2.14,2.73.44,1.37.42,2.85.39,4.29-.08,4.3-.17,8.63-1.18,12.81s-3.03,8.24-6.37,10.95c1.11-3.09.61-6.59-.76-9.58-1.36-2.99-3.52-5.54-5.79-7.91-.77-.8-1.57-1.62-1.97-2.65-.91-2.35.53-4.96,2.23-6.82Z"/>
    <path class="cls-3" d="M405.65,267.24c-.14,1.56-1.9,2.62-3.44,2.38-1.36-.21-2.53-1.24-3.06-2.51s-.45-2.75.06-4.03c.77-.1,1.54-.2,2.31-.3.7-.09,1.43-.17,2.07.11.97.43,1.42,1.53,1.74,2.54.19.59.37,1.2.32,1.81Z"/>
  </g>
  <path class="cls-4" d="M310.1,267.5c-1.87.34-2.52,3.06-1.35,4.55s3.41,1.77,5.21,1.16c1.8-.61,3.26-1.92,4.66-3.2-.77.8-.96,2.1-.46,3.1.77,1.55,3.22,1.45,4.45.22s1.54-3.07,1.8-4.78c.52-3.44,1.04-6.89,1.56-10.33.78-5.14,1.56-10.32,1.36-15.52-.11-2.87-.51-5.76-.08-8.6.46-3.04,1.86-5.84,3.24-8.58,2.98-5.94,5.98-11.92,9.97-17.24,1.63-2.18,3.44-4.26,4.74-6.66,1.67-3.09,2.45-6.65,2.21-10.16-1.82-.23-3.64,1.44-3.58,3.27-.56-.92-1.85-1.32-2.83-.89-.99.44-1.55,1.66-1.25,2.7-1.95-.9-4.51-.19-5.71,1.6-.47.7-.74,1.52-1.26,2.19-.53.69-1.29,1.17-2.03,1.64-3.05,1.93-6.11,3.86-9.16,5.79.83.07,1.12,1.28.64,1.96s-1.35.95-2.16,1.16c-1.21.32-2.42.65-3.63.97-1.07.29-2.26.66-2.78,1.65-.52.98.42,2.55,1.43,2.1-2.18,2.87-8.03,1.42-9.21,4.83-.98,2.84,2.67,5.07,3.57,7.95-3.45-2.46-8.87-.38-10.49,3.54-1.63,3.92.1,8.68,3.36,11.39-3.25.93-5.59,4.36-5.27,7.73.69.4,1.38.79,2.06,1.19-1.77-.44-3.57,1.28-3.63,3.11-.07,1.82,1.2,3.49,2.76,4.43,1.57.94,3.41,1.28,5.2,1.62-2.76.2-3.34,4.61-1.17,6.32,2.17,1.71,5.4,1.15,7.82-.18Z"/>
  <path class="cls-2" d="M244.99,320.6c2.66.09,4.87-1.97,6.58-4.01,3.36-3.98,6.15-8.43,8.27-13.19,2.81-6.29,4.56-13.31,9.25-18.36-1.95,6.05-3.9,12.11-5.84,18.16-1.45,4.49-2.9,9.01-3.68,13.66-2.14,12.72,1.01,26.24,8.55,36.71,1.08,1.5,2.61,3.09,4.44,2.81,2.06-.32,2.96-2.73,3.46-4.76,1.2-4.86,2.39-9.73,3.59-14.59.31,3.14.61,6.29.92,9.43.17,1.8.72,4.02,2.49,4.37,2.03.4,3.35-2.04,3.87-4.05,4.28-16.61,1.77-34.12,2.7-51.24.84-15.58,4.57-31.01,10.96-45.25,2-4.46,4.27-8.84,5.63-13.54,3.37-11.63.62-24.85-7.11-34.16-2.4-2.89-5.39-5.5-9.02-6.46-4.57-1.21-9.37.34-13.84,1.88-11.67,4.01-23.33,8.02-35,12.02-3.97,1.36-8.72,3.81-8.52,8,2.21,0,4.43,0,6.64,0-7.79,5.73-15.27,11.89-22.39,18.43-4.1,3.77-8.39,8.4-8.09,13.96,13.51-2.67,26.44-8.22,37.68-16.16-5,3.7-9.94,7.47-14.82,11.33-7.84,6.2-16.18,13.91-16.38,23.9,1.6.75,3.46-.07,5.03-.89,5.1-2.64,10.19-5.28,15.29-7.92-9.67,6.53-15.13,18.8-13.51,30.36,3.99-1.75,7.03-5.1,9.84-8.43,9.08-10.73,17.25-22.18,25.42-33.62-5.03,7.89-10.06,15.78-15.09,23.66-3.25,5.1-6.55,10.29-8.16,16.12-1.43,5.16-1.48,10.59-1.44,15.94.04,4.75.14,9.5.31,14.25.02.66.07,1.37.49,1.87,1.19,1.42,3.37-.23,4.4-1.76,3.9-5.8,7.79-11.6,11.69-17.4-.32,6.57-6.31,12.53-4.58,18.88Z"/>
  <path class="cls-7" d="M288.55,225.19c2.83.77,5.97.31,8.46-1.24-3.09,1.28-5.33,4.41-5.53,7.74,3.84.28,7.76-.86,10.86-3.14-2.72,2.08-4.46,5.39-4.63,8.8,2.84.67,6.05-.74,7.47-3.29-.43,1.48-.86,2.96-1.29,4.44,1.69-.4,3.1-1.51,4.37-2.7,10.07-9.44,13.76-24.58,24.8-32.85,3.52-2.64,7.65-4.45,10.95-7.35.62-.55,1.24-1.17,1.48-1.97.46-1.5-.61-3.12-2-3.83s-3.03-.74-4.59-.75c-12.11-.08-24.21-.16-36.32-.25-8.72-.06-18.63.4-24.27,7.05,4.32.59,8.67.94,13.02,1.03-4.25-.19-8.54,1.51-11.51,4.56,3.33,1.34,6.96,1.94,10.55,1.74-2.78.23-5.49,1.26-7.72,2.93,3.87,1.24,7.96,1.8,12.02,1.64-6.8.37-12.96,5.95-14.01,12.68,5.35-.98,10.7-1.96,16.06-2.94-3.75,1.04-6.91,4.02-8.17,7.7Z"/>
</svg>