<?xml version="1.0" encoding="UTF-8"?>
<svg id="Layer_1" data-name="Layer 1" xmlns="http://www.w3.org/2000/svg" viewBox="0 0 500 500">
  <defs>
    <style>
      .cls-1 {
        fill: #edddb4;
      }

      .cls-2 {
        fill: #02329e;
      }

      .cls-3 {
        fill: #1c1924;
      }

      .cls-4 {
        fill: #a5200e;
      }

      .cls-5 {
        fill: #fff;
      }

      .cls-6 {
        fill: #cd280c;
      }

      .cls-7 {
        fill: #f6d204;
      }

      .cls-8 {
        fill: #062a5e;
      }

      .cls-9 {
        fill: #f2a408;
      }
    </style>
  </defs>
  <path class="cls-8" d="M346.33,376.6c-2.01-.53-1.81-3.44-1.14-5.4,1.42-4.17,2.93-8.32,4.51-12.44-3.24,1.65-6.2,3.84-8.73,6.44-.6-4.31.78-8.86,3.67-12.12-1.87.05-3.75.11-5.62.16-.51.02-1.09,0-1.44-.37-.32-.34-.33-.87-.31-1.34.18-3.73.97-7.44,2.34-10.92-2.26.86-4.53,1.72-6.79,2.58.67-1.98,1.56-3.87,2.66-5.65-.97,1.35-2.94,2.03-4.39,1.23s-1.8-3.2-.44-4.16c-2.16-.09-4.39-.46-6.14-1.71-1.75-1.26-2.87-3.6-2.14-5.63.47-1.29,1.58-2.26,2.11-3.53.43-1.02.45-2.16.71-3.24.75-3.1,3.49-5.43,6.49-6.51s6.27-1.11,9.46-1.05c9.89.21,19.88,1.32,29.17,4.72s17.9,9.25,23.35,17.5c3.79,5.74,5.99,12.51,10.43,17.77,2.36,2.8,5.31,5.12,7.29,8.19,3.35,5.18,3.51,11.71,3.95,17.86,1.28,17.79,5.81,35.34,13.31,51.52,1.22,2.64,2.55,5.33,2.68,8.24-6.54.44-11.47-5.59-15.19-10.99-3.52-5.11-7.13-10.45-8.13-16.58,1.23,6.39,3.27,12.63,6.06,18.52,1.22,2.58,2.61,5.42,1.78,8.15-3.04,1.4-6.35-1.23-8.51-3.79-5.48-6.49-9.81-13.95-12.75-21.92,1.36,6.51,2.73,13.02,4.09,19.53-2.17,1.65-5.17-.51-6.8-2.69-5.66-7.54-8.35-16.83-10.92-25.9.07,5.15.15,10.3.22,15.45,0,.44,0,.93-.27,1.28-.73.96-2.22-.02-2.91-1.01-4.92-7.09-6.29-15.97-7.52-24.51-1.02,3.19-2.04,6.37-3.06,9.56-.37,1.17-.87,2.48-2.02,2.92-1.36.53-2.87-.5-3.64-1.74-1.29-2.08-1.31-4.67-1.29-7.12.04-5.21.07-10.41.11-15.62-1.68,4.12-3.67,8.1-5.96,11.91-2.67-1.42-2.53-5.23-2.01-8.2.78-4.5,1.56-9,2.34-13.51-1.92,1.11-3.84,2.22-5.76,3.34-.86.5-1.85,1.02-2.81.76Z"/>
  <path class="cls-9" d="M379.19,363.69c1.5.49,3.09-.41,4.31-1.42,2.74-2.25,4.86-5.25,6.07-8.58-.54,4.84-1.07,9.68-1.61,14.52.84,1.56,3.2.22,4.24-1.22,2.6-3.59,4.78-7.49,6.49-11.57-.91,4.05-1.82,8.16-1.6,12.31.22,4.15,1.72,8.4,4.9,11.07.65.54,1.47,1.03,2.29.83.94-.23,1.42-1.25,1.75-2.16,1.91-5.26,2.96-10.82,3.11-16.41-.37,4.9.19,9.87,1.66,14.56.18.59.4,1.2.86,1.59.94.8,2.43.37,3.39-.4,2.83-2.3,2.96-6.54,2.46-10.15-.68-4.97-3.27-12.55-3.5-17.56-.37-8.22.76-12.6-1.32-19.85-.96-3.33-6.83-5.66-8.58-8.64-3.03-5.15-8.11-8.74-13.26-11.78-2.88-1.7-5.92-3.31-9.24-3.7-3.92-.47-7.81.8-11.56,2.05-6.19,2.06-12.39,4.13-18.58,6.19-2.77.92-5.62,1.89-7.83,3.8-2.21,1.91-3.66,5.01-2.77,7.79,5.82-.45,11.65-.9,17.47-1.35-3.54,1.62-6.64,4.17-8.92,7.32,3.92,1.07,8.19.82,11.96-.69-3.34.79-6.04,3.76-6.51,7.16,3.75-.8,7.3-2.5,10.27-4.92-3.12,2.54-6.52,5.59-6.63,9.61,1.36,1.39,3.68.49,5.37-.47,3.45-1.97,6.9-3.94,10.35-5.91-4.32,4.24-6.8,10.3-6.69,16.35,6.19-.03,10.87-5.37,14.68-10.25-3.4,5.58-6.95,11.88-5.6,18.27.32,1.52,1.09,3.15,2.56,3.63Z"/>
  <path class="cls-4" d="M388.49,319.95c-.67,1.42-1.1,2.95-1.27,4.51-.07.63-.1,1.29.13,1.89.54,1.43,2.38,2,3.86,1.62,1.48-.37,2.68-1.43,3.82-2.45-1.53,1.7-.22,4.88,2.04,5.23s4.43-1.92,4.25-4.2c.68,1.95,2.15,3.62,4.01,4.55.49-.75.99-1.5,1.48-2.25,1.57,1.68,3.65,2.88,5.89,3.39,1.03.23,2.34.2,2.85-.72.49-.88-.11-1.98-.88-2.63-.77-.65-1.73-1.1-2.3-1.93-.17-.7,1-.61,1.71-.71.86-.12,1.39-1.07,1.35-1.93-.04-.86-.5-1.64-.94-2.38-2.47-4.12-4.94-8.23-7.41-12.35-2.12-3.53-4.54-7.31-8.42-8.66-3.35-1.17-7.02-.25-10.45.67-4.64,1.25-9.52,2.63-12.87,6.07-3.77,3.87-4.86,9.59-5.15,14.99,3.29-1.94,6.43-4.13,9.38-6.56-.32,2.58-.28,5.85,2.06,6.97,2.45,1.17,5.08-1.08,6.85-3.13Z"/>
  <g>
    <path class="cls-3" d="M210.79,341.33c-1.69.14-3.43.16-5.02-.44s-2.99-1.91-3.27-3.58c-.28-1.67.9-3.57,2.58-3.71.02-.42-.54-.59-.96-.57-3.11.13-5.78,3.17-5.53,6.26.25,3.1,3.39,5.65,6.47,5.28-2.18.3-4.42.18-6.56-.36-2-.5-4.19-1.73-4.38-3.78-1.09,1.31-1.48,3.18-.99,4.82s1.83,2.99,3.46,3.49c.97.3,2.01.31,3.03.25,1.75-.1,3.5-.38,5.19-.85-.91,1.17-2.22,2.01-3.66,2.37,2.69.57,5.53,0,8.03-1.15,2.5-1.14,4.72-2.81,6.89-4.51,8.11-6.39,15.82-13.58,21.04-22.5.43-.74.86-1.53.89-2.38.03-.86-.45-1.79-1.29-1.99-.99,2.36-2.49,4.47-3.98,6.55-3.41,4.79-6.87,9.63-11.36,13.42,1.03-1.32,1.79-2.85,2.22-4.47.28-1.05.41-2.22-.1-3.18-.3-.57-.79-1.01-1.33-1.37-1.18-.8-2.69-1.24-4.06-.82s-2.43,1.89-2.08,3.27c.59-1.12,2.24-1.5,3.25-.75.8.59,1.11,1.66,1.14,2.66.07,1.87-.65,3.76-1.95,5.11-1.95,2.02-4.91,2.68-7.7,2.92Z"/>
    <path class="cls-3" d="M235.01,345.95c-1.59.13-3.23.15-4.73-.41s-2.82-1.8-3.08-3.37c-.26-1.57.85-3.36,2.43-3.49.02-.4-.51-.55-.9-.54-2.93.13-5.45,2.98-5.21,5.9s3.19,5.33,6.1,4.97c-2.06.28-4.17.17-6.18-.34-1.88-.47-3.95-1.63-4.13-3.56-1.03,1.23-1.39,3-.94,4.54.46,1.54,1.72,2.82,3.26,3.29.92.28,1.9.29,2.85.23,1.65-.09,3.29-.36,4.89-.8-.86,1.1-2.09,1.9-3.45,2.23,2.53.54,5.21,0,7.57-1.08,2.36-1.07,4.45-2.64,6.49-4.25,7.64-6.02,14.9-12.8,19.82-21.19.41-.7.81-1.44.84-2.24s-.43-1.69-1.21-1.87c-.94,2.22-2.35,4.21-3.75,6.17-3.21,4.51-6.47,9.07-10.7,12.64.97-1.24,1.69-2.68,2.09-4.21.26-.99.38-2.09-.09-3-.28-.53-.75-.95-1.25-1.29-1.11-.75-2.54-1.17-3.82-.78s-2.29,1.78-1.96,3.08c.55-1.06,2.11-1.41,3.07-.7.76.56,1.04,1.57,1.08,2.51.06,1.76-.62,3.54-1.84,4.81-1.84,1.91-4.62,2.53-7.26,2.75Z"/>
    <path class="cls-2" d="M141.52,304.9c-9.1-1.97-18.76-1.27-27.47,2-.45.17-.94.4-1.08.85-.14.46.47,1.01.8.66-7.56,1.65-14.87,4.41-21.63,8.17-2.21,1.23-4.68,3.29-4.04,5.74,14.87-3.81,29.59-8.19,44.12-13.12,3.25-1.1,6.54-2.26,9.31-4.29Z"/>
    <path class="cls-2" d="M134.25,311.81c3.35-.1,6.61-.99,9.85-1.82,24.45-6.31,49.57-10.03,74.81-11.08.88-.04,2.06-.41,1.94-1.27-.05-.39.55-3.05.25-3.3-2.79-2.27-6.72-2.25-10.29-2.65-1.63-.18-3.26.07-4.88.31-11.68,1.78-23.36,3.55-35.04,5.33-3.38.51-6.76,1.03-10.1,1.77-8.94,1.97-17.52,5.55-25.22,10.51-.78.5-1.67,1.34-1.31,2.2Z"/>
    <path class="cls-6" d="M200.18,294.04c2.88-1.05,6.02-2.6,6.9-5.54-12.85-1.38-25.82.59-38.73.03-4.19-.18-8.38-.63-12.57-.66-4.37-.03-8.73.38-13.07.9-18.99,2.27-37.74,6.5-55.87,12.59-4.77,1.6-9.91,3.69-12.25,8.14,8.63,2,17.62,1.4,26.45.78,11.47-.8,22.94-1.59,34.4-2.39,4.04-.28,8.1-.56,12.1-1.17,3.6-.55,7.15-1.35,10.7-2.16,6.7-1.52,13.4-3.05,20.1-4.57,7.36-1.67,14.74-3.36,21.83-5.95Z"/>
    <path class="cls-6" d="M204.8,289.05c1.82-.28,3.71-.6,5.21-1.67,1.5-1.07,2.44-3.15,1.64-4.81-10.87,3-22.13,4.59-33.4,4.73-4.94.06-9.89-.15-14.82.18-6.09.41-12.09,1.66-18.1,2.76-16.88,3.08-33.97,4.98-51.12,5.68-12.4.51-24.97.4-36.98,3.54-2.63.69-5.56,1.84-6.46,4.41,7.5,1.41,15.18,1.49,22.82,1.43,13.84-.12,27.7-.7,41.43-2.41,5.29-.66,10.55-1.48,15.82-2.3,4.88-.76,9.75-1.52,14.63-2.28,12.66-1.97,25.32-3.95,37.99-5.92,7.12-1.11,14.24-2.22,21.36-3.33Z"/>
    <path class="cls-2" d="M209.87,281.25c-5.25.66-10.51,1.33-15.79,1.57-5.01.23-10.03.09-15.04-.13-21.9-.97-43.73-3.38-65.31-7.23-.37.73-.45,1.6-.23,2.38,3.66,3.95,9.46,4.87,14.81,5.54,28.84,3.6,58.39,6.21,86.76-.15,2.8-.63,5.77-1.45,7.67-3.61-4.28.54-8.57,1.08-12.85,1.62Z"/>
    <path class="cls-2" d="M109.22,295.66c9.82.43,19.68.76,29.47-.05,6.44-.54,12.82-1.57,19.2-2.6,17.85-2.89,35.7-5.78,53.55-8.67,1.15-.19,2.58-.68,2.63-1.84-41.1,2.78-82.31,4.03-123.51,3.75-3.16-.02-6.41-.04-9.38,1.06,1.61,3.57,5.66,5.31,9.46,6.25,6.06,1.51,12.34,1.82,18.58,2.09Z"/>
    <path class="cls-6" d="M427.86,257.57c-3.12-6-7.67-11.24-13.17-15.18-.69,1.57-10.33-1.08-11.99-1.49-14.74-3.66-24.54,5.51-39.66,6.91-11.49,1.07-49.35,3.17-60.6,5.69-43.51,9.74-59.34,12.31-98.1,34.34-1.34.76-2.88,2.19-2.15,3.55.38.7,1.22.98,1.98,1.19,3.35.91,6.77,1.55,10.22,1.92-.75.2-1.32.96-1.3,1.74,8.32,4.01,16.69,7.96,25.18,11.62-.35.6-.7,1.19-1.06,1.79-1.1,1.86-2.21,3.77-2.62,5.89-.3,1.57-.07,3.46,1.27,4.34.7.46,1.57.55,2.4.51,1.3-.06,2.57-.42,3.82-.78,5.02-1.43,10.04-2.86,15.07-4.28,1.33.47,2.66.93,3.99,1.38-.87,2.68-3.69,5.35-2.47,7.91.76,1.59,2.82,2.16,4.56,1.88,1.74-.28,3.31-1.18,4.97-1.79,3.28-1.2,7.09-1.33,10.03-3.03,17.87,4.33,36.48,5.96,54.56,2.88,8.55-1.45,16.9-3.94,25.01-7,10.16-3.82,19.96-8.53,29.75-13.24,4.27-2.05,8.57-4.12,12.38-6.95,3.02-2.24,5.68-4.92,8.68-7.18,4.3-3.24,9.23-5.58,13.5-8.85s8.02-7.83,8.45-13.2c.3-3.68-1-7.32-2.71-10.6Z"/>
    <path class="cls-5" d="M384.32,261.12c-1.01,3.64-1.89,7.38-1.63,11.15s1.82,7.61,4.88,9.82c-.71.32-1.52.44-2.29.34,1.19,3.24,3.8,5.81,6.82,7.48s6.43,2.5,9.84,3c2.27.33,4.6.53,6.86.12,4.55-.81,8.56-4.18,10.14-8.53-2.25-.63-4.04-2.66-4.38-4.96.69-.27,1.05-1.19.71-1.85.45-.01.89-.03,1.34-.04.9-5.22.37-10.75-1.95-15.51-2.31-4.77-6.49-8.69-11.54-10.28-5.05-1.59-10.93-.66-14.98,2.76-1.01.85-1.9,1.85-2.54,3.01-.6,1.09-.95,2.3-1.28,3.5Z"/>
    <path class="cls-3" d="M404.91,293.2c-.06.35-.1.74.06,1.06.15.29.44.48.73.64,4.36,2.48,9.9,2.76,14.48.72,1.58-.7,3.2-1.89,3.39-3.61.17-1.52-.84-2.9-1.79-4.1-1.83-2.32-3.75-4.7-6.38-6.06-.6-.31-1.28-.57-1.94-.41-.55.12-.99.51-1.41.88-1.62,1.43-3.25,2.88-4.52,4.63-1.34,1.84-2.24,3.99-2.62,6.24Z"/>
    <path class="cls-1" d="M415.64,276.8c1.19-1.3,2.55-2.48,4.14-3.25,1.57-.77,3.33-1.13,5.08-1.04.72.04,1.44.15,2.08.48,1.06.54,1.78,1.6,2.14,2.73.44,1.37.42,2.85.39,4.29-.08,4.3-.17,8.63-1.18,12.81-1.01,4.18-3.03,8.24-6.37,10.95,1.11-3.09.61-6.59-.76-9.58-1.36-2.99-3.52-5.54-5.79-7.91-.77-.8-1.57-1.62-1.97-2.65-.91-2.35.53-4.96,2.23-6.82Z"/>
    <path class="cls-3" d="M405.87,267.01c-.14,1.56-1.9,2.62-3.44,2.38-1.36-.21-2.53-1.24-3.06-2.51s-.45-2.75.06-4.03c.77-.1,1.54-.2,2.31-.3.7-.09,1.43-.17,2.07.11.97.43,1.42,1.53,1.74,2.54.19.59.37,1.19.32,1.81Z"/>
  </g>
  <path class="cls-2" d="M274.8,409.54c.67.77,1.43,1.56,2.43,1.76,2.63.51,3.96-3.02,4.22-5.69.47-4.84.95-9.67,1.42-14.51-1.12,17.26,7.97,34.81,22.72,43.86.27-8.33.2-16.67-.2-24.99,1.51,7.55,4,14.9,7.4,21.81,3.22,6.56,7.61,13.02,14.23,16.1,1.52-3.73.82-7.95.09-11.92-1.39-7.59-2.77-15.17-4.16-22.76-.22,4.61,2.31,9.24,6.31,11.54-.54-10.56-1.09-21.12-1.63-31.69-.27-5.19-.54-10.4-1.52-15.5-.76-3.97-1.95-7.83-3.13-11.69-5.25-17.11-10.51-34.23-15.76-51.35-3.72-12.11-7.46-24.27-13.03-35.65-11.99.65-23.87,3.09-35.15,7.2,1.06.63,2.12,1.25,3.19,1.88-1.95-.15-4.25.07-5.32,1.71-1.08,1.63.88,4.48,2.48,3.34-1.16,1.07-2.31,2.14-3.47,3.21,1.4.41,2.79.83,4.19,1.24-9.99,9.35-16.93,21.9-19.54,35.33,3.94-3.64,7.47-7.72,10.48-12.16-7.89,12.19-7.82,27.7-7.49,42.22.01.53.04,1.1.37,1.51,1.05,1.33,2.98-.47,3.64-2.02,2.61-6.14,5.22-12.29,7.83-18.43-2.39,6.92-4.52,14.02-4.97,21.33-.45,7.31.92,14.92,5.04,20.98.5.73,1.3,1.53,2.13,1.23.54-.19.83-.77,1.06-1.29,2.67-6.06,5.35-12.11,8.02-18.17-4.71,14-1.52,30.37,8.11,41.57Z"/>
  <path class="cls-7" d="M275.25,352.85c-.02,1.37.13,2.94,1.22,3.76,1.05.79,2.6.54,3.66-.22s1.76-1.93,2.41-3.06c-.78,6.38,3.14,12.31,7.05,17.41,4.42,5.78,9.06,11.39,13.92,16.8,1.33-6.32,1.68-12.84,1.03-19.26.77,3.05,1.56,6.16,3.2,8.84,1.64,2.68,4.3,4.93,7.43,5.28.99-5.59,1.7-11.23,2.1-16.9,2.72.74,2.47,5.72,5.25,6.17,1.02.16,2.02-.44,2.7-1.21,1.65-1.87,1.9-4.57,1.84-7.07-.15-7.17-2.06-14.22-2.06-21.39,0-7.72,2.2-15.27,2.89-22.96,1.29-14.35-2.71-28.58-6.67-42.43-.94-3.27-2.38-7.07-5.68-7.89-1.59-.4-3.25.02-4.82.46-6.8,1.88-13.51,4.11-20.09,6.67-1.77.69-3.9,2.18-3.22,3.95,1.72.42,3.45.83,5.17,1.25-9.83.05-19.55,4.68-25.79,12.28,1.45-.13,2.94.26,4.14,1.09-2.5.53-4.44,2.99-4.37,5.54,1.02.24,2.04.48,3.06.71-3.53,4.96-5.78,10.83-6.46,16.88,2.1.31,4.29-.06,6.17-1.06-2.2,11.02-2.63,22.39-1.28,33.55,3.97-1.34,7.33-4.4,9.02-8.23-1.14,3.57-1.76,7.3-1.82,11.04Z"/>
  <path class="cls-4" d="M327.21,331.42c1.98,1.43,4.39,2.27,6.83,2.36,2.26-4.97,0-10.69-.33-16.14-.32-5.2,1.15-10.33,2.13-15.45,1.28-6.66,1.74-13.48,1.36-20.26-3.52-2.08-7.14-4.26-9.48-7.62-2.34-3.35-3.02-8.22-.47-11.42-4.8.34-9.54,1.56-13.91,3.59-.62,1.91.43,4.01,1.91,5.36-1.46.14-3.01.31-4.13,1.24s-1.51,2.9-.36,3.81c-2.97.68-5.94,1.36-8.92,2.04.81,1.1,1.63,2.2,2.44,3.29-12.49-.93-24.99,8.09-28.04,20.23,7.24-.17,14.48-.33,21.72-.5-4.89,3.83-7.47,10.41-6.5,16.54,3.07-.61,6.04-1.73,8.74-3.31-1.48,2.13-3.03,4.44-3.06,7.03-.03,2.6,2.22,5.37,4.76,4.83,1.94-.41,3.11-2.44,4.9-3.28.11,2.45-.45,4.88-.53,7.33-.07,2.45.45,5.11,2.29,6.73,1.84,1.62,5.24,1.5,6.32-.7-.9,4.51,5.08,8.29,9.2,6.25,4.12-2.04,5.29-7.92,3.11-11.97Z"/>
</svg>