<?xml version="1.0" encoding="UTF-8"?>
<svg id="Layer_1" data-name="Layer 1" xmlns="http://www.w3.org/2000/svg" viewBox="0 0 500 500">
  <defs>
    <style>
      .cls-1 {
        fill: #2b1f1f;
      }

      .cls-2 {
        fill: #3d2e2e;
      }

      .cls-3 {
        fill: #1c1924;
      }

      .cls-4 {
        fill: #ea850c;
      }

      .cls-5 {
        fill: #424705;
      }

      .cls-6 {
        fill: #c6260c;
      }

      .cls-7 {
        fill: #4f5906;
      }

      .cls-8 {
        fill: #7c5f4d;
      }

      .cls-9 {
        fill: #f5b404;
      }

      .cls-10 {
        fill: #9c6e56;
      }
    </style>
  </defs>
  <path class="cls-1" d="M354.03,443.16c-4.28-8.21-6.43-17.53-6.17-26.78-.79,5.1-1.59,10.21-2.38,15.31-.25,1.62-1.18,3.73-2.77,3.33-.53-.13-.94-.54-1.3-.95-3.11-3.6-4.13-8.56-4.35-13.31s.23-9.54-.43-14.25c-1.66,1.24-2.27,3.4-3.16,5.27s-2.62,3.76-4.67,3.42c-1.72-.28-2.78-1.99-3.52-3.57-7.12-15.17-5.08-34.24,5.11-47.55,1.02-1.33,2.18-2.65,3.75-3.23,1.42-.52,3-.35,4.5-.15,15.75,2.16,31.28,8.04,43.13,18.64,8.53,7.63,14.85,17.38,21.06,27,6.29,9.75,12.58,19.49,18.87,29.24,3.24,5.02,6.52,10.13,8.13,15.87-3.68.25-7.2-1.4-10.43-3.19-9.33-5.19-17.76-11.98-24.81-19.98,5.08,10.42,14.76,18.33,18.52,29.3.21.6.4,1.24.34,1.87-.24,2.53-3.77,3.04-6.21,2.35-5.08-1.44-9.33-4.91-13-8.7-6.94-7.16-12.36-15.78-15.8-25.13-.34,9.33,6.89,17.32,8.26,26.56.26,1.77.13,3.93-1.4,4.87-1.31.81-3.03.3-4.39-.43-4.82-2.56-8.04-7.35-10.5-12.22-3.75-7.42-6.24-15.48-7.31-23.72-.09,6.45-.17,12.9-.26,19.36-.02,1.69-.16,3.63-1.49,4.67-1.25.98-3.13.73-4.43-.17-1.3-.9-2.13-2.32-2.86-3.72Z"/>
  <path class="cls-5" d="M323.29,301c-3.97,2.42-7.87,4.97-11.69,7.64-1.56,1.09-3.21,2.34-3.75,4.16-.53,1.77.03,3.94-1.22,5.3,1.69.18,3.37.37,5.06.55-2,1.16-3.46,3.23-3.87,5.5,1,.47,1.99.94,2.99,1.4-.43,1.78-1.7,3.3-1.96,5.11-.26,1.81,1.46,4.05,3.08,3.19-1.9,2.46-2.92,5.87-1.7,8.74,1.22,2.86,5.21,4.47,7.67,2.56-.19,2.7-.36,5.56.87,7.97,1.22,2.42,4.37,4.08,6.73,2.73,0,1.45,0,2.89,0,4.34,1.24.6,2.64.84,4.01.69,2.05,7.85,5.73,15.27,10.74,21.64-.11-.83-.23-1.66-.34-2.49.38,7.12,6.37,13.52,13.44,14.38,1.39-5.14,2.11-10.45,2.15-15.77,1.02,4.5,2.46,8.91,4.28,13.16,1.26,2.92,3.92,6.3,6.88,5.14,1.97-.77,2.7-3.21,2.65-5.32-.05-2.11-.6-4.25-.12-6.31,2.07,11.02,10.85,20.5,21.68,23.41.63.17,1.4.27,1.83-.21.39-.44.26-1.12.1-1.69-1.43-5.26-2.86-10.52-4.3-15.79,2.21,2.39,3.9,5.23,6.14,7.59s5.27,4.3,8.52,4.1c1.21-.07,2.53-.55,3.05-1.64.86-1.77-.83-3.69-2.43-4.85-4.18-3.03-9.21-5.76-10.85-10.66,3.19.99,6.39,1.98,9.58,2.96,1.93.6,4.92.51,4.98-1.51.04-1.16-1.08-1.98-2.07-2.58-3.83-2.34-7.66-4.68-11.5-7.02,1.9-.02,3.8-.04,5.7-.06.1-1.3-.84-2.42-1.72-3.38-3.94-4.29-7.88-8.57-11.81-12.86-9.32-10.15-20.22-19.01-28.85-29.76-4.92-6.13-9.3-12.7-14.57-18.53-5.27-5.83-11.88-9.53-19.39-11.87Z"/>
  <path class="cls-4" d="M351.06,345.04c.18,2.46,1.7,4.98,4.09,5.57,2.39.59,5.25-1.59,4.71-4-.5,3.02,1.99,5.62,4.26,7.66,4.68,4.2,9.37,8.4,14.05,12.6-.84-2.33-1.67-4.67-2.51-7,3.15,1.88,6.48,3.47,9.93,4.73.23-1.2-.68-2.5-1.88-2.7,1.45.98,3.24,1.46,5,1.33,1.34-1.25.44-3.47-.52-5.03-6.08-9.86-12.16-19.72-18.24-29.58-1.97-3.19-3.93-6.38-6.21-9.36-1.57-2.05-3.28-4-4.74-6.13-4.06-5.89-6.11-12.91-9.39-19.26-.49-.95-1.05-1.93-1.97-2.46-.9-.52-2-.54-3.04-.49-9,.4-17.76,4.61-23.7,11.38,2.25.98,4.67,1.58,7.11,1.76-1.45,1.83-2.28,4.13-2.34,6.46.84,0,1.68.01,2.52.02-.87,9.13.54,18.47,4.07,26.94,2.53-.83,4.37-3.42,4.32-6.09.2,2.07.71,4.24,2.17,5.73,1.46,1.48,4.12,1.93,5.6.46-.17,2.28-.3,4.74.94,6.66,1.24,1.92,4.43,2.67,5.76.81Z"/>
  <g>
    <path class="cls-3" d="M192.16,330.02c-1.69.14-3.43.16-5.02-.44-1.58-.59-2.99-1.91-3.27-3.58s.9-3.57,2.58-3.71c.02-.42-.54-.59-.96-.57-3.11.13-5.78,3.17-5.53,6.26.25,3.1,3.39,5.65,6.47,5.28-2.18.3-4.42.18-6.56-.36-2-.5-4.19-1.73-4.38-3.78-1.09,1.31-1.48,3.18-.99,4.82.49,1.64,1.83,2.99,3.46,3.49.97.3,2.01.31,3.03.25,1.75-.1,3.5-.38,5.19-.85-.91,1.17-2.22,2.01-3.66,2.37,2.69.57,5.53,0,8.03-1.15,2.5-1.14,4.72-2.81,6.89-4.51,8.11-6.39,15.82-13.58,21.04-22.5.43-.74.86-1.53.89-2.38s-.45-1.79-1.29-1.99c-.99,2.36-2.49,4.47-3.98,6.55-3.41,4.79-6.87,9.63-11.36,13.41,1.03-1.32,1.79-2.85,2.22-4.47.28-1.05.41-2.22-.1-3.18-.3-.57-.79-1.01-1.33-1.37-1.18-.8-2.69-1.24-4.06-.82-1.36.42-2.43,1.89-2.08,3.27.59-1.12,2.24-1.5,3.26-.75.8.59,1.11,1.66,1.14,2.66.07,1.87-.65,3.76-1.95,5.11-1.95,2.02-4.9,2.68-7.7,2.92Z"/>
    <path class="cls-3" d="M216.38,334.64c-1.59.13-3.23.15-4.73-.41s-2.82-1.8-3.08-3.37.85-3.36,2.43-3.49c.02-.4-.51-.55-.9-.54-2.93.13-5.45,2.98-5.21,5.9.24,2.92,3.19,5.33,6.1,4.97-2.06.28-4.17.17-6.18-.34-1.88-.47-3.95-1.63-4.13-3.56-1.03,1.23-1.39,3-.94,4.54.46,1.54,1.72,2.82,3.26,3.29.92.28,1.9.29,2.85.23,1.65-.09,3.29-.36,4.89-.8-.86,1.1-2.09,1.9-3.45,2.23,2.53.54,5.21,0,7.57-1.08,2.36-1.07,4.45-2.64,6.49-4.25,7.64-6.02,14.9-12.8,19.82-21.19.41-.7.81-1.44.84-2.24.03-.81-.43-1.69-1.21-1.87-.94,2.22-2.35,4.21-3.75,6.17-3.21,4.51-6.47,9.07-10.7,12.64.97-1.24,1.69-2.68,2.09-4.21.26-.99.38-2.09-.09-3-.28-.53-.75-.95-1.25-1.29-1.11-.75-2.54-1.17-3.82-.78-1.29.4-2.29,1.78-1.96,3.08.55-1.06,2.11-1.41,3.07-.7.76.56,1.04,1.57,1.08,2.51.06,1.76-.62,3.54-1.84,4.81-1.84,1.91-4.62,2.53-7.26,2.75Z"/>
    <path class="cls-7" d="M122.88,293.59c-9.1-1.97-18.76-1.27-27.47,2-.45.17-.94.4-1.08.85-.14.46.47,1.01.8.66-7.56,1.65-14.87,4.41-21.63,8.17-2.21,1.23-4.68,3.29-4.04,5.74,14.87-3.81,29.59-8.19,44.12-13.12,3.25-1.1,6.54-2.26,9.31-4.29Z"/>
    <path class="cls-9" d="M115.61,300.5c3.35-.1,6.61-.99,9.85-1.82,24.45-6.31,49.57-10.03,74.81-11.08.88-.04,2.06-.41,1.94-1.27-.05-.39.55-3.05.25-3.3-2.79-2.27-6.72-2.25-10.29-2.65-1.63-.18-3.26.07-4.88.31-11.68,1.78-23.36,3.55-35.04,5.33-3.38.51-6.76,1.03-10.1,1.77-8.94,1.97-17.52,5.55-25.22,10.51-.78.5-1.67,1.34-1.31,2.2Z"/>
    <path class="cls-9" d="M181.55,282.73c2.88-1.05,6.02-2.6,6.9-5.54-12.85-1.38-25.82.59-38.73.03-4.19-.18-8.38-.63-12.57-.66-4.37-.03-8.73.38-13.07.9-18.99,2.27-37.74,6.5-55.87,12.59-4.77,1.6-9.91,3.69-12.25,8.14,8.63,2,17.62,1.4,26.45.78,11.47-.8,22.94-1.59,34.4-2.39,4.04-.28,8.1-.56,12.1-1.17,3.6-.55,7.15-1.35,10.7-2.16,6.7-1.52,13.4-3.05,20.1-4.57,7.36-1.67,14.74-3.36,21.83-5.95Z"/>
    <path class="cls-7" d="M186.17,277.74c1.82-.28,3.71-.6,5.21-1.67,1.5-1.07,2.44-3.15,1.64-4.81-10.87,3-22.13,4.59-33.4,4.73-4.94.06-9.89-.15-14.82.18-6.09.41-12.09,1.66-18.1,2.76-16.88,3.08-33.97,4.98-51.12,5.68-12.4.51-24.97.4-36.98,3.54-2.63.69-5.56,1.84-6.46,4.41,7.5,1.41,15.18,1.49,22.82,1.43,13.84-.12,27.7-.7,41.43-2.41,5.29-.66,10.55-1.48,15.82-2.3,4.88-.76,9.75-1.52,14.63-2.28,12.66-1.97,25.32-3.95,37.99-5.92,7.12-1.11,14.24-2.22,21.36-3.33Z"/>
    <path class="cls-9" d="M191.23,269.94c-5.25.66-10.51,1.33-15.79,1.57-5.01.23-10.03.09-15.04-.13-21.9-.97-43.73-3.38-65.31-7.23-.37.73-.45,1.6-.23,2.38,3.66,3.95,9.46,4.87,14.81,5.54,28.84,3.6,58.39,6.21,86.76-.15,2.8-.63,5.77-1.45,7.67-3.61-4.28.54-8.57,1.08-12.85,1.63Z"/>
    <path class="cls-7" d="M90.58,284.35c9.82.43,19.68.76,29.47-.05,6.44-.54,12.82-1.57,19.2-2.6,17.85-2.89,35.7-5.78,53.55-8.67,1.15-.19,2.58-.68,2.63-1.84-41.1,2.78-82.31,4.03-123.51,3.75-3.16-.02-6.41-.04-9.38,1.06,1.61,3.57,5.66,5.31,9.46,6.25,6.06,1.51,12.34,1.82,18.58,2.09Z"/>
    <path class="cls-9" d="M409.23,246.26c-3.12-6-7.67-11.24-13.17-15.18-.69,1.57-10.33-1.08-11.99-1.49-14.74-3.66-24.54,5.51-39.66,6.91-11.49,1.07-49.35,3.17-60.6,5.69-43.51,9.74-59.34,12.31-98.1,34.34-1.34.76-2.88,2.19-2.15,3.55.38.7,1.22.98,1.98,1.19,3.35.91,6.77,1.55,10.22,1.92-.75.2-1.32.96-1.3,1.74,8.32,4.01,16.69,7.96,25.18,11.62-.35.6-.7,1.19-1.06,1.79-1.1,1.86-2.21,3.77-2.62,5.89-.3,1.57-.07,3.46,1.27,4.34.7.46,1.57.55,2.4.51,1.3-.06,2.57-.42,3.82-.78,5.02-1.43,10.04-2.86,15.07-4.28,1.33.47,2.66.93,3.99,1.38-.87,2.68-3.69,5.35-2.47,7.91.76,1.59,2.82,2.16,4.56,1.88,1.74-.28,3.31-1.18,4.97-1.79,3.28-1.2,7.09-1.33,10.03-3.03,17.87,4.33,36.48,5.96,54.56,2.88,8.55-1.45,16.9-3.94,25.01-7,10.16-3.82,19.96-8.53,29.75-13.24,4.27-2.05,8.57-4.12,12.38-6.95,3.02-2.24,5.68-4.92,8.68-7.18,4.3-3.24,9.23-5.58,13.5-8.85s8.02-7.83,8.45-13.2c.3-3.69-1-7.32-2.71-10.61Z"/>
    <path class="cls-6" d="M365.68,249.81c-1.01,3.64-1.89,7.38-1.63,11.15s1.82,7.61,4.88,9.82c-.71.32-1.52.44-2.29.34,1.19,3.23,3.8,5.81,6.82,7.48s6.43,2.5,9.84,3c2.27.33,4.6.53,6.86.12,4.55-.81,8.56-4.18,10.14-8.53-2.25-.63-4.04-2.66-4.38-4.96.69-.27,1.05-1.19.71-1.85.45-.01.89-.03,1.34-.04.9-5.22.37-10.75-1.95-15.51-2.31-4.77-6.49-8.69-11.54-10.28-5.05-1.59-10.93-.66-14.98,2.76-1.01.85-1.9,1.85-2.54,3.01-.6,1.09-.95,2.3-1.28,3.5Z"/>
    <path class="cls-3" d="M386.27,281.89c-.06.36-.1.74.06,1.06.15.29.44.48.73.64,4.36,2.48,9.9,2.76,14.48.72,1.58-.7,3.2-1.89,3.39-3.61.17-1.52-.84-2.9-1.79-4.1-1.83-2.32-3.75-4.7-6.38-6.06-.6-.31-1.28-.57-1.94-.41-.55.12-.99.51-1.41.88-1.62,1.43-3.25,2.88-4.52,4.63-1.34,1.84-2.24,3.99-2.62,6.24Z"/>
    <path class="cls-8" d="M397,265.49c1.19-1.3,2.55-2.48,4.14-3.25,1.57-.77,3.33-1.13,5.08-1.04.72.04,1.44.15,2.08.48,1.06.54,1.78,1.6,2.14,2.73.44,1.37.42,2.85.39,4.29-.08,4.3-.17,8.63-1.18,12.81s-3.03,8.24-6.37,10.95c1.11-3.09.61-6.59-.76-9.58s-3.52-5.54-5.79-7.91c-.77-.8-1.57-1.62-1.97-2.65-.91-2.35.53-4.96,2.23-6.82Z"/>
    <path class="cls-10" d="M376.76,249.06c3.15-1.59,7.14-1.4,10.12.49.88.56,1.69,1.27,2.17,2.2.49.94.59,2.03.69,3.09.18,1.95.36,3.89.55,5.84-4.07,1.39-8.75.84-12.38-1.45-1.85-2.63-2.55-6.04-1.89-9.19.05-.23.11-.47.26-.65.13-.15.31-.25.48-.34Z"/>
    <path class="cls-3" d="M387.23,255.7c-.14,1.56-1.9,2.62-3.44,2.38-1.36-.21-2.53-1.24-3.06-2.51s-.45-2.75.06-4.03c.77-.1,1.54-.2,2.31-.3.7-.09,1.43-.17,2.07.11.97.43,1.42,1.53,1.74,2.54.19.59.37,1.2.32,1.81Z"/>
  </g>
  <path class="cls-2" d="M221.68,356.18c.29,3.17,4.74,6.25,2.53,8.54,1.77-1.12,4.19.77,4.4,2.85.21,2.08-.98,4.02-2.12,5.77,3.18.48,6.37.97,9.55,1.45-6.06,2.15-11.14,6.93-13.66,12.85,6.41,1.65,13.29,1.39,19.56-.73-1.51,2.89-4.94,4.05-7.85,5.54-2.9,1.49-5.84,4.4-4.93,7.53,1.07,3.72,6.16,4.02,10,3.56,4.84-.58,9.68-1.17,14.51-1.75-8.14,5.15-14.32,13.35-17.03,22.6,12.06,2.84,23.63-5.47,33.25-13.29-1.98,6.18-7.78,10.16-12.83,14.23-5.05,4.07-10.05,9.67-9.34,16.12,13.49,1.16,27.39-4.36,36.4-14.46-5.7,12.12-23.32,17.21-24.83,30.52,7.71,1.22,15.45-2.16,21.85-6.62,6.4-4.46,11.99-10.05,18.61-14.18-6.81,10.08-12.46,20.94-16.79,32.3-1.45,3.8-2.18,9.19,1.49,10.95,2.54,1.21,5.49-.32,7.78-1.96,10.62-7.58,18.95-18.32,23.63-30.5.15,2.21.29,4.42.44,6.63,2.28-.03,3.68-2.44,4.54-4.55,10.86-26.61,9.74-57.86-2.98-83.63-3.42-6.93-7.62-13.44-11.8-19.94-17.07-26.48-34.14-52.98-52.44-78.63-.68-.95-1.39-1.93-2.4-2.53-1.34-.8-2.98-.8-4.54-.78-11.53.16-23.84.84-33.14,7.66,2.41.74,4.82,1.48,7.23,2.22-2.6.36-5.11,1.39-7.22,2.97-.6.45-1.19.97-1.51,1.66-.8,1.69.4,3.78,2.08,4.63,1.67.84,3.64.77,5.51.68-3.7.98-6.94,3.59-8.68,7.01,2.27.96,4.53,1.92,6.8,2.88-3.69.28-6.77,3.94-6.42,7.62,2.58.65,5.17,1.29,7.75,1.94-1.84,2.46-6.09,2.41-7.41,5.18-1.08,2.27.73,5.06,3.07,5.96s4.97.45,7.44-.01c-2.4,1.01-4.86,2.07-6.7,3.91-1.84,1.84-2.94,4.67-2.01,7.1.93,2.43,4.37,3.76,6.33,2.06-3.29,1.01-5.85,4.07-6.25,7.48,4.1,1.32,8.44,1.88,12.74,1.66-2.82,2.66-7.94,3.54-8.51,7.37-.33,2.25,1.35,4.41,3.41,5.37s4.41,1.01,6.69,1.04c-2.91.9-6.45,2.68-6.17,5.71Z"/>
  <path class="cls-7" d="M310.44,411.63c2.1-2.5,3.91-5.23,5.39-8.14.02,4.22.03,8.44.05,12.66,2.47-1.13,4.48-3.23,5.51-5.75.25,2.62.71,5.22,1.38,7.77.24.91.71,1.98,1.64,2.06.56.04,1.07-.31,1.49-.69,3.93-3.51,4.44-9.38,4.67-14.64.6-13.38,1.13-27.17-3.39-39.78-2.55-7.11-6.63-13.58-9.22-20.67-2.52-6.92-3.58-14.28-5.66-21.34-3.34-11.3-9.25-21.63-13.92-32.44-4.67-10.81-8.15-22.67-6.2-34.28-9.97,3.27-20.52,4.76-31.01,4.39-6.91-.24-13.97-1.27-20.65.54,2.45,2.82,5.94,4.72,9.64,5.23-2.53.57-4.89,1.84-6.76,3.64,1.86.59,3.55,1.7,4.82,3.18-8.38,2.4-15.9,7.72-20.96,14.82,3.8-.2,7.65.62,11.04,2.35-1.46.91-2.93,1.81-4.39,2.72,2.13,1.39,4.12,3,5.93,4.8-1.05.97-2.65.91-4.05,1.21-1.4.31-2.92,1.57-2.4,2.9.22.57.75.95,1.27,1.28,2.68,1.74,5.55,3.19,8.55,4.32-2.39,2.09-4.78,4.19-7.17,6.28-1.29,1.13-2.61,2.3-3.33,3.85s-.68,3.59.56,4.77c.75.71,1.8,1,2.81,1.25,4.32,1.07,8.69,1.93,13.1,2.58-1.89,1.22-4.14,1.82-6.03,3.04-1.89,1.22-3.46,3.47-2.82,5.64.83,2.82,4.48,3.42,7.42,3.51,5.42.17,10.83.33,16.25.5-4.3.48-8.35,2.81-10.95,6.27,3.13.94,6.25,1.88,9.38,2.82-.72,1.83-1.25,3.74-1.57,5.69,3.22.98,6.79.75,9.87-.63-2.45,3.5-4.97,8.13-2.7,11.75,1.38,2.21,4.19,3.17,6.79,3.03s5.05-1.19,7.43-2.22c-4.81,4.65-7.53,11.38-7.3,18.06.02.71.09,1.45.42,2.08.74,1.38,2.6,1.82,4.11,1.41s2.74-1.48,3.92-2.51c3.49-3.05,6.98-6.1,10.47-9.14-1.28,4.55-2.57,9.11-3.85,13.66-.55,1.94-1.1,3.96-.81,5.96.29,2,1.65,3.99,3.64,4.35,2.65.47,4.83-1.95,6.43-4.12,2.67-3.62,5.33-7.25,8-10.87-.54,8.15-1.08,16.29-1.62,24.44-.11,1.6.11,3.67,1.66,4.08,1.21.32,2.34-.7,3.15-1.66Z"/>
  <path class="cls-4" d="M269.38,324.93c.64,1.73-1.28,3.58-.82,5.37.45,1.72,2.65,2.15,4.42,2.23,5.04.24,10.09.32,15.14.27-2.99,1.48-4.38,5.4-3.26,8.54s4.47,5.24,7.8,5.19,6.49-2.1,8.16-4.98c-1.99,2.87-3.12,6.32-3.2,9.81,2.81,1.47,6.57.81,8.7-1.54-.87,1.82-1.76,3.74-1.64,5.76s1.61,4.11,3.62,4.14c2.01.03,3.47-1.84,4.58-3.52.01,2.65.03,5.3.04,7.95,2.09.38,4.37-.57,5.56-2.33-.68,6.85,2.52,13.43,5.63,19.57,3.07-1.63,4.85-5.37,4.18-8.78-.7,1.83,2.4,3.14,3.88,1.85,1.47-1.3,1.49-3.55,1.31-5.51-2.13-22.52-15.24-42.38-21.62-64.08-3.9-13.27-5.26-27.12-6.68-40.88-.43-4.17-1.44-9.12-5.34-10.66-2.88-1.14-6.09.17-8.91,1.48-3.67,1.7-7.32,3.42-10.97,5.16-6.23,2.97-13.07,6.73-14.9,13.39,1.61.25,3.23.5,4.84.74-1.16,3.09-1.74,6.39-1.71,9.69,1.23.37,2.45.73,3.68,1.1-6.13,5.28-10.9,12.12-13.72,19.71-.14.37-.27.79-.09,1.15.21.42.75.54,1.21.61,3.46.52,6.92,1.03,10.38,1.55.38,1.42-.94,2.72-2.24,3.42s-2.83,1.27-3.47,2.6c-.63,1.33.81,3.38,2.03,2.55-.98,1.94-1.99,4.08-1.51,6.2.48,2.12,3.28,3.71,4.9,2.26Z"/>
</svg>