<?xml version="1.0" encoding="UTF-8"?>
<svg id="Layer_1" data-name="Layer 1" xmlns="http://www.w3.org/2000/svg" viewBox="0 0 500 500">
  <defs>
    <style>
      .cls-1 {
        fill: #2b1f1f;
      }

      .cls-2 {
        fill: #3d2e2e;
      }

      .cls-3 {
        fill: #1c1924;
      }

      .cls-4 {
        fill: #ea850c;
      }

      .cls-5 {
        fill: #c6260c;
      }

      .cls-6 {
        fill: #4f5906;
      }

      .cls-7 {
        fill: #7c5f4d;
      }

      .cls-8 {
        fill: #f5b404;
      }

      .cls-9 {
        fill: #9c6e56;
      }
    </style>
  </defs>
  <path class="cls-1" d="M366.62,174.43c-2.52,1.15-3.19,4.32-3.89,7s-2.45,5.77-5.21,5.57c-.88-4.89-1.76-9.79-2.63-14.68-1.56.27-2.63,1.67-3.54,2.96-1.84-3.19-1.44-7.52.95-10.32,1.12-1.31,2.58-2.26,4.02-3.19,4.23-2.73,8.58-5.45,13.46-6.7,1.39-.36,2.81-.59,4.21-.93,4.37-1.06,8.58-3.15,13.08-3.1,2,.02,4.07.52,5.59,1.82,1.48,1.27,2.27,3.14,2.9,4.98,4.91,14.43,2.36,30.25-.97,45.12-.27,1.19-.55,2.41-1.25,3.4s-1.91,1.74-3.1,1.51c-4.14-11.26-1.85-24.03-5.53-35.45.53,4.24.79,8.52.78,12.79,0,4.89-.53,10.2-3.84,13.81-.39.43-.85.84-1.41.95-1.73.34-2.58-2.01-2.72-3.77-.53-7.2-1.07-14.4-1.6-21.61-.65,3.31-1.3,6.63-1.95,9.94-.71,3.63-1.5,7.42-3.83,10.29-.5.61-1.32,1.22-2.01.84-.56-.3-.65-1.05-.68-1.69-.27-6.52-.55-13.04-.82-19.56Z"/>
  <path class="cls-2" d="M358.4,167.62c-3.49,2.1-6.97,4.2-10.46,6.3-9.68,5.83-19.45,11.74-27.54,19.63-10.17,9.93-17.72,23.01-30.22,29.77-1.45.78-3.1,1.49-4.71,1.11-2.36-.56-3.55-3.12-4.42-5.39-1.55-4.06-3.13-8.27-2.94-12.61.13-2.93,1.07-5.77,2.16-8.5,5.95-14.94,16.46-27.7,28.32-38.57,6.82-6.24,14.45-12.11,23.46-14.19.02,1.13-.71,2.24-1.75,2.69,3.89-1.38,7.78-2.76,11.67-4.13,5.46-1.93,11.5-3.87,16.89-1.76-.24.38-.48.76-.71,1.14,6.24-.14,12.5.52,18.57,1.95-.81-.1-1.61-.19-2.42-.29,6.6,1.09,12.92,3.8,18.25,7.82-12.37,1.96-23.44,8.56-34.16,15.02Z"/>
  <path class="cls-6" d="M312.46,181.26c-1.25-1.22-2.5-2.44-3.76-3.67-.47,1.98-.6,4.03-.39,6.05-1.37-.39-2.8-.57-4.23-.55-.56,1.99-.6,4.13-.09,6.13-1.33-.68-2.67-1.35-4-2.03-.42-.21-.87-.43-1.34-.38-1.09.12-1.48,1.48-1.6,2.57-.42,3.96-.56,7.94-.44,11.92-1.82-.8-3.65-1.6-5.47-2.39-.53,3.34-.26,6.8.77,10.02-1.21-.91-2.62-1.54-4.1-1.84-.19,2.55.06,5.13.71,7.6-1.93-.57-4.63-.79-5.34,1.09-.21.56-.16,1.19-.11,1.79.67,7.02,1.94,13.98,3.79,20.78.35,1.3.74,2.61,1.53,3.71.83,1.15,2.04,1.97,3.32,2.58,6.05,2.9,13.56,1.35,19.02-2.54s9.19-9.78,12.04-15.86c2.86-6.07,4.99-12.48,8.08-18.44,3.67-7.06,8.67-13.42,14.66-18.65,1.17-1.02,2.38-2,3.36-3.2.72-.88,1.3-1.86,1.94-2.81,3.61-5.4,8.8-9.5,13.48-14,1.74-1.67,3.56-3.89,2.95-6.23-2.93-.48-6.06.54-8.14,2.66.05-2.23.53-4.45,1.38-6.52-3.06-1.03-6.53-.73-9.37.79-3,1.62-5.31,4.52-8.59,5.45-.2-1.86-.04-3.75.47-5.55-2.49-.73-5.39.34-6.83,2.5.08-2.3-3.02-3.59-5.13-2.69s-3.37,3.06-4.47,5.09c-1.57-1.31-3.61-2.7-5.49-1.9-.91.39-1.55,1.22-2.11,2.04-3.35,4.91-5.6,10.58-6.52,16.46Z"/>
  <path class="cls-4" d="M297.71,221.99c-.51-1.89-2.37-3.32-2.42-5.28-.06-2.17,2.32-3.77,4.5-3.71s4.13,1.27,5.96,2.44c-.56-1.78-1.11-3.56-1.67-5.34,1.64-.38,3.37-.38,5.01.01,0-1.33-.01-2.66-.02-3.98,2-.41,4.1-.32,6.06.27-.51-2.07-1.02-4.14-1.53-6.21,1.88-.3,3.8-.34,5.69-.1-.77-2.69-1.53-5.63-.46-8.21s4.87-4.08,6.74-2c.18-1.18.12-2.39-.17-3.54,1.36-.13,2.76.13,3.97.76-.63-1.61.3-3.65,1.92-4.23s3.64.4,4.18,2.04c-.3-1.38.13-3.07,1.42-3.64s3.07.97,2.32,2.16c2.92-1.59,6.19-2.52,9.51-2.72.63,1.32.73,2.88.27,4.27.87-1.19,2.91.28,2.71,1.74-.2,1.46-1.51,2.45-2.59,3.45-2.31,2.14-3.89,4.93-5.42,7.68-1.91,3.41-3.83,6.85-5.06,10.56-1.03,3.1-1.56,6.34-2.28,9.53-1.75,7.7-4.65,15.08-7.53,22.43-.55,1.41-1.12,2.85-2.13,3.98-1.9,2.14-4.96,2.76-7.8,3.04-6.73.65-13.59.01-20.09-1.87-.6-.17-1.21-.37-1.68-.77-.54-.47-.83-1.16-1.1-1.83-.59-1.48-1.2-3.03-1.04-4.61s1.36-3.19,2.95-3.22c-.82-1.14-1.68-2.37-1.69-3.78,0-1.4,1.29-2.88,2.64-2.49-1.98-1.58-2.5-4.69-1.15-6.83Z"/>
  <g>
    <path class="cls-3" d="M192.72,330.5c-1.69.14-3.43.16-5.02-.44-1.58-.59-2.99-1.91-3.27-3.58s.9-3.57,2.58-3.71c.02-.42-.54-.59-.96-.57-3.11.13-5.78,3.17-5.53,6.26.25,3.1,3.39,5.65,6.48,5.28-2.18.3-4.42.18-6.56-.36-2-.5-4.19-1.73-4.38-3.78-1.09,1.31-1.48,3.18-.99,4.82.49,1.64,1.83,2.99,3.46,3.49.97.3,2.01.31,3.03.25,1.75-.1,3.5-.38,5.19-.85-.91,1.17-2.22,2.01-3.66,2.37,2.69.57,5.53,0,8.03-1.15s4.72-2.81,6.89-4.51c8.11-6.39,15.82-13.58,21.04-22.5.43-.74.86-1.53.89-2.38.03-.86-.45-1.79-1.29-1.99-.99,2.36-2.49,4.47-3.98,6.55-3.41,4.79-6.87,9.63-11.36,13.41,1.03-1.32,1.79-2.85,2.22-4.47.28-1.05.41-2.22-.1-3.18-.3-.57-.79-1.01-1.33-1.37-1.18-.8-2.69-1.24-4.06-.82-1.36.42-2.43,1.89-2.08,3.27.59-1.12,2.24-1.5,3.25-.75.8.59,1.11,1.66,1.14,2.66.07,1.87-.65,3.76-1.95,5.11-1.95,2.02-4.9,2.68-7.7,2.92Z"/>
    <path class="cls-3" d="M216.94,335.11c-1.59.13-3.23.15-4.73-.41s-2.82-1.8-3.08-3.37.85-3.36,2.43-3.49c.02-.4-.51-.55-.9-.54-2.93.13-5.45,2.98-5.21,5.9.24,2.92,3.19,5.33,6.1,4.97-2.06.28-4.17.17-6.18-.34-1.88-.47-3.95-1.63-4.13-3.56-1.03,1.23-1.39,3-.94,4.54s1.72,2.82,3.26,3.29c.92.28,1.9.29,2.85.23,1.65-.09,3.29-.36,4.89-.8-.86,1.1-2.09,1.9-3.45,2.23,2.53.54,5.21,0,7.57-1.08,2.36-1.07,4.45-2.64,6.49-4.25,7.64-6.02,14.9-12.8,19.82-21.19.41-.7.81-1.44.84-2.24.03-.81-.43-1.69-1.21-1.87-.94,2.22-2.35,4.21-3.75,6.17-3.21,4.51-6.47,9.07-10.7,12.64.97-1.24,1.69-2.68,2.09-4.21.26-.99.38-2.09-.09-3-.28-.53-.75-.95-1.25-1.29-1.11-.75-2.54-1.17-3.82-.78-1.29.4-2.29,1.78-1.96,3.08.55-1.06,2.11-1.41,3.07-.7.76.56,1.04,1.57,1.08,2.51.06,1.76-.62,3.54-1.84,4.81-1.84,1.91-4.62,2.53-7.26,2.75Z"/>
    <path class="cls-6" d="M123.44,294.07c-9.1-1.97-18.76-1.27-27.47,2-.45.17-.94.4-1.08.85-.14.46.47,1.01.8.66-7.56,1.65-14.87,4.41-21.63,8.17-2.21,1.23-4.68,3.29-4.04,5.74,14.87-3.81,29.59-8.19,44.12-13.12,3.25-1.1,6.54-2.26,9.31-4.29Z"/>
    <path class="cls-8" d="M116.17,300.97c3.35-.1,6.61-.99,9.85-1.82,24.45-6.31,49.57-10.03,74.81-11.08.88-.04,2.06-.41,1.94-1.27-.05-.39.55-3.05.25-3.3-2.79-2.27-6.72-2.25-10.29-2.65-1.63-.18-3.27.07-4.88.31-11.68,1.78-23.36,3.55-35.04,5.33-3.38.51-6.76,1.03-10.1,1.77-8.94,1.97-17.52,5.55-25.22,10.51-.78.51-1.67,1.34-1.31,2.2Z"/>
    <path class="cls-8" d="M182.11,283.2c2.88-1.05,6.02-2.6,6.9-5.54-12.85-1.38-25.82.59-38.73.03-4.19-.18-8.38-.63-12.57-.66-4.37-.03-8.73.38-13.07.9-18.99,2.27-37.74,6.5-55.87,12.59-4.77,1.6-9.91,3.69-12.25,8.14,8.63,2,17.62,1.4,26.45.78,11.47-.8,22.94-1.59,34.4-2.39,4.04-.28,8.1-.56,12.1-1.17,3.6-.55,7.15-1.35,10.7-2.16,6.7-1.52,13.4-3.05,20.1-4.57,7.36-1.68,14.74-3.36,21.83-5.95Z"/>
    <path class="cls-6" d="M186.73,278.21c1.82-.28,3.71-.6,5.21-1.67s2.44-3.15,1.64-4.81c-10.87,3-22.13,4.59-33.4,4.73-4.94.06-9.89-.15-14.82.18-6.09.41-12.09,1.66-18.1,2.76-16.88,3.08-33.97,4.98-51.12,5.68-12.4.51-24.97.4-36.98,3.54-2.63.69-5.56,1.84-6.46,4.41,7.5,1.41,15.18,1.49,22.82,1.43,13.84-.12,27.7-.7,41.43-2.41,5.29-.66,10.55-1.48,15.82-2.3,4.88-.76,9.75-1.52,14.63-2.28,12.66-1.97,25.32-3.95,37.99-5.92,7.12-1.11,14.24-2.22,21.36-3.33Z"/>
    <path class="cls-8" d="M191.8,270.41c-5.25.66-10.51,1.33-15.79,1.57-5.01.23-10.03.09-15.04-.13-21.9-.97-43.73-3.38-65.31-7.23-.37.73-.45,1.6-.23,2.38,3.66,3.95,9.46,4.87,14.81,5.54,28.84,3.6,58.39,6.21,86.76-.15,2.8-.63,5.77-1.45,7.67-3.61-4.28.54-8.57,1.08-12.85,1.63Z"/>
    <path class="cls-6" d="M91.14,284.82c9.82.43,19.68.76,29.47-.05,6.44-.54,12.82-1.57,19.2-2.6,17.85-2.89,35.7-5.78,53.55-8.67,1.15-.19,2.58-.68,2.63-1.84-41.1,2.78-82.31,4.03-123.51,3.75-3.16-.02-6.41-.04-9.38,1.06,1.61,3.57,5.66,5.31,9.46,6.25,6.06,1.51,12.34,1.82,18.58,2.09Z"/>
    <path class="cls-8" d="M409.79,246.73c-3.12-6-7.67-11.24-13.17-15.18-.69,1.57-10.33-1.08-11.99-1.49-14.74-3.66-24.54,5.51-39.66,6.91-11.49,1.07-49.35,3.17-60.61,5.69-43.51,9.74-59.34,12.31-98.1,34.34-1.34.76-2.88,2.19-2.15,3.55.38.7,1.22.98,1.98,1.19,3.35.91,6.77,1.55,10.22,1.92-.75.2-1.32.96-1.3,1.74,8.32,4.01,16.69,7.96,25.18,11.62-.35.6-.7,1.19-1.06,1.79-1.1,1.86-2.21,3.77-2.62,5.89-.3,1.57-.07,3.46,1.27,4.34.7.46,1.57.55,2.4.51,1.3-.06,2.57-.42,3.82-.78,5.02-1.43,10.04-2.86,15.07-4.28,1.33.47,2.66.93,3.99,1.38-.87,2.68-3.69,5.35-2.47,7.91.76,1.59,2.82,2.16,4.56,1.88,1.74-.28,3.31-1.18,4.97-1.79,3.28-1.2,7.09-1.33,10.03-3.03,17.87,4.33,36.48,5.96,54.56,2.88,8.55-1.45,16.9-3.94,25.01-7,10.16-3.82,19.96-8.53,29.75-13.24,4.27-2.05,8.57-4.12,12.38-6.95,3.02-2.24,5.68-4.92,8.68-7.18,4.3-3.24,9.23-5.58,13.5-8.85,4.28-3.27,8.02-7.83,8.45-13.2.3-3.68-1-7.32-2.71-10.6Z"/>
    <path class="cls-5" d="M366.24,250.28c-1.01,3.64-1.89,7.38-1.64,11.15.26,3.77,1.82,7.61,4.88,9.82-.71.32-1.52.44-2.29.34,1.19,3.23,3.8,5.81,6.82,7.48,3.02,1.67,6.43,2.5,9.84,3,2.27.33,4.6.53,6.86.12,4.55-.81,8.56-4.18,10.14-8.53-2.25-.63-4.04-2.66-4.38-4.96.69-.27,1.05-1.19.71-1.85.45-.01.89-.03,1.34-.04.9-5.22.37-10.75-1.95-15.51-2.31-4.77-6.49-8.69-11.54-10.28-5.05-1.59-10.93-.66-14.98,2.76-1.01.85-1.9,1.85-2.54,3.01-.59,1.09-.95,2.3-1.28,3.5Z"/>
    <path class="cls-3" d="M386.83,282.36c-.06.36-.1.74.06,1.06.15.29.44.48.73.64,4.36,2.48,9.9,2.76,14.48.72,1.58-.7,3.2-1.89,3.39-3.61.17-1.52-.84-2.9-1.79-4.1-1.84-2.32-3.75-4.7-6.38-6.06-.6-.31-1.28-.57-1.94-.41-.55.12-.99.51-1.41.88-1.62,1.43-3.25,2.88-4.52,4.63-1.34,1.84-2.24,3.99-2.62,6.24Z"/>
    <path class="cls-7" d="M397.56,265.96c1.19-1.3,2.55-2.48,4.14-3.25,1.57-.77,3.33-1.13,5.08-1.04.72.04,1.44.15,2.08.48,1.06.54,1.78,1.6,2.14,2.73.44,1.37.42,2.85.39,4.29-.08,4.3-.17,8.63-1.18,12.81s-3.03,8.24-6.37,10.95c1.11-3.09.61-6.59-.76-9.58-1.36-2.99-3.52-5.54-5.79-7.91-.77-.8-1.57-1.62-1.97-2.65-.91-2.35.53-4.96,2.23-6.82Z"/>
    <path class="cls-9" d="M377.6,249.11c3.15-1.59,7.14-1.4,10.12.49.88.56,1.69,1.27,2.17,2.2.49.94.59,2.03.69,3.09.18,1.95.36,3.89.55,5.84-4.07,1.39-8.75.84-12.38-1.45-1.85-2.63-2.55-6.04-1.89-9.19.05-.23.11-.47.26-.65.13-.15.31-.25.48-.34Z"/>
    <path class="cls-3" d="M387.79,256.17c-.14,1.56-1.9,2.62-3.44,2.38-1.36-.21-2.53-1.24-3.06-2.51s-.45-2.75.06-4.03c.77-.1,1.54-.2,2.31-.3.7-.09,1.43-.17,2.07.11.97.43,1.42,1.53,1.74,2.54.19.59.37,1.19.32,1.81Z"/>
  </g>
  <path class="cls-2" d="M230.03,134.11c-5.47,1.15-10.8,2.89-16.1,4.66-10.23,3.41-20.48,6.97-29.89,12.23,2.05,2.52,5.35,3.95,8.59,3.73-2.17.96-4.19,2.25-5.97,3.81,1.48.62,2.96,1.24,4.44,1.86-1.98-.26-4.01,1.51-3.96,3.51.05,2,2.22,3.67,4.16,3.16-1.13.26-2.32.54-3.19,1.31s-1.3,2.18-.6,3.11c.35.48.91.74,1.45.98,1.68.76,3.35,1.53,5.03,2.29-5.26,1.72-9.85,5.41-12.67,10.18,4.91.58,9.78,1.51,14.57,2.78-2.83.27-5.6,1.09-8.12,2.4,1.7.96,3.4,1.91,5.1,2.87-1.86-.75-4.29.46-4.64,2.43-.35,1.97,1.78,3.99,3.68,3.38-1.96,1.43-4.17,3.62-3.29,5.89.22.57.64,1.1.62,1.71-.04.95-1.06,1.5-1.68,2.23-1.41,1.64-.59,4.35,1.11,5.68,1.7,1.33,3.96,1.64,6.1,1.9-2.43.78-4.07,3.49-3.62,6.01s2.91,4.51,5.46,4.41c.5.81-.24,1.84-1.06,2.32-.82.49-1.82.82-2.26,1.67-.75,1.46.74,3.05,2.15,3.9,1.41.84,3.13,1.92,3.01,3.55-.04.58-.32,1.16-.17,1.71.16.55.7.9,1.19,1.19,1.59.93,3.18,1.86,4.77,2.8-1.65-.47-2.85,1.98-2.03,3.48s2.63,2.11,4.27,2.59c1.53.45,3.06.9,4.6,1.35.57,1.45-2.54,2.54-1.85,3.94.25.51.88.67,1.44.77,2.24.41,4.48.81,6.72,1.22-.24,1.07-.49,2.14-.73,3.21,2.71.08,5.41.16,8.12.24.46.01.97.05,1.3.36.77.72-.04,1.94-.21,2.98-.24,1.45.96,2.82,2.35,3.28,1.39.47,2.9.26,4.36.05-1.3.78-2.17,2.22-2.26,3.73,1.84.08,3.68.16,5.53.24-.86.42-1.4,1.44-1.25,2.39,5.71.23,11.47-.83,16.72-3.07,1.17-.5,2.43-1.19,2.8-2.4.24-.77.06-1.6-.13-2.38-1.39-5.54-3.77-10.83-4.62-16.48-.6-3.99-.43-8.05-.21-12.08,1.62-29.94,5.93-60.88,22.09-86.14,3.32-5.19,7.23-10.42,7.7-16.56-16.27-1.87-32.87-3.72-48.9-.36Z"/>
  <path class="cls-6" d="M284.84,148.19c.17-5.14-1.41-10.16-2.98-15.06-.54-1.69-1.28-3.59-2.94-4.2-1.68-.61-3.64.51-4.4,2.13-.76,1.62-.55,3.54.04,5.23-.92-1.31-2.63-2.25-4.13-1.7-1.51.55-2.03,3-.62,3.76-2.43-.13-4.87-.26-7.3-.39-.05.75.2,1.52.68,2.1-5.61-1.27-11.41-1.67-17.13-1.19-1.57.13-3.58.79-3.57,2.37,0,.77.54,1.42,1.04,2,1.54,1.78,3.08,3.55,4.63,5.33-4.62-.21-9.26.06-13.82.81-1.26.21-2.72.64-3.11,1.85-.97,3.05,5.86,3.9,5.38,7.06-2.87.14-5.73.29-8.6.43-1.41.07-3.27.59-3.23,2,.02.84.78,1.46,1.47,1.95,1.79,1.27,3.58,2.54,5.37,3.82-2.36,0-4.72,0-7.08,0-.87,0-1.83.03-2.46.62-.51.48-.69,1.23-.71,1.93-.12,5.2,6.34,7.91,8.5,12.64-2.67-.08-5.34.19-7.94.81-1.24.29-2.58.76-3.17,1.89-1.05,1.99.95,4.17,2.74,5.54-1.96.55-3.92,1.11-5.88,1.66-.95.27-2.03.64-2.39,1.56-1.18,2.98,6.22,3.78,5.39,6.88-2.6.19-5.29.39-7.6,1.61-2.31,1.22-4.15,3.73-3.74,6.31.46,2.94,3.42,4.7,6.07,6.05,2.47,1.26,4.94,2.52,7.41,3.78-1.7-.79-3.87.92-3.77,2.79s2.06,3.32,3.93,3.19c-2.69.01-5.45.04-7.96.99s-4.77,3.06-5.11,5.73c-.09.68-.03,1.41.38,1.96.38.5,1,.75,1.59.97,4.62,1.7,9.49,2.7,14.4,2.97.07,1.36-1.63,1.97-2.94,2.36-1.31.39-2.8,1.76-1.98,2.85,1.76,1.37,3.76,2.43,5.89,3.11-.55.98-1.38,1.8-2.37,2.33,2.26,1.84,5.12,2.93,8.03,3.06-.88,1.96-1.59,4.67.16,5.91.59.42,1.33.54,2.05.64,4.39.63,8.83.96,13.26.97-1.98,1.96-4.75,3-6.66,5.02-1.92,2.02-2.44,5.91.02,7.21.95.5,2.09.47,3.16.41,5.93-.34,11.84-1.1,17.67-2.28-.88,1.96-1.51,4.03-1.88,6.15,3.25-.38,6.42-1.49,9.19-3.23.11.89.21,1.78.32,2.67,3.62-.68,7.07-2.21,10.01-4.42.31.73.62,1.45.93,2.18,3.2-3.08,6.4-6.16,9.59-9.24.68-.65,1.39-1.37,1.55-2.3.17-.99-.34-1.96-.82-2.84-8.08-14.97-11.69-32.1-12.12-49.11-.43-17.01,2.21-33.97,6.03-50.56.69-2.99,1.42-6,1.53-9.07Z"/>
  <path class="cls-4" d="M258.07,189.64c-.37.64-1.15.9-1.85,1.12-3.18,1-6.22,2.44-9.01,4.27-1.96,1.28-3.94,3-4.23,5.32-.31,2.55,1.51,4.81,3.22,6.72-2.42,1.78-5.5,2.52-7.88,4.36s-3.77,5.68-1.61,7.78c.41.4.92.71,1.18,1.21.61,1.16-.39,2.46-.84,3.68-1.09,2.93,1.82,6.5,4.91,6.02-.47,3.84,3.88,7.39,7.55,6.15-1.22,1.54-.39,3.98,1.2,5.13s3.65,1.37,5.61,1.55c-2.26.4-2.57,3.93-.87,5.48,1.69,1.55,4.25,1.59,6.54,1.36-.9.78-.58,2.37.35,3.1.94.73,2.23.8,3.41.68,2.2-.22,4.34-.97,6.19-2.18.73,2.63-1.62,6.09.47,7.84,1.13.95,2.84.57,4.21.03,2.25-.88,4.38-2.06,6.32-3.49-1.48,2.35,1.11,5.54,3.88,5.72,2.77.18,5.27-1.52,7.52-3.14.21,2.11,1.92,3.97,4,4.37,2.08.4,4.35-.71,5.33-2.59-8.45-7.29-12.37-18.39-15.96-28.95-1.16-3.42-2.32-6.85-2.96-10.41-2.65-14.75,3.95-29.69,3.28-44.66-.14-3.11-.59-6.21-.57-9.33.04-5.76,1.71-11.4,2.09-17.15.09-1.4.05-2.97-.91-3.99-.96-1.02-3.13-.79-3.33.6-.12-1.3-.24-2.59-.37-3.89-1.58,1.41-4.15-.8-6.12-.03-1.19.46-1.71,1.82-2.07,3.04-1.03,3.5-1.77,7.09-2.22,10.71-1.47-1.37-4.08.13-4.48,2.1s.62,3.92,1.6,5.67c-1.94.38-4.34,1.28-4.36,3.25,0,.99.64,1.84,1.04,2.74,1.32,2.96-.13,6.52-2.38,8.85-2.86,2.96-7.25,5.24-7.59,9.34-.05.55-.02,1.14-.29,1.62Z"/>
  <path class="cls-1" d="M203.85,146.73c6.14-3.05,13.02-4.78,18.44-8.97-4.14,4.99-9.86,8.37-14.63,12.76s-8.79,10.56-7.75,16.96c8.95-1.65,15.01-9.68,21.57-15.99,6.36-6.12,13.9-11.01,22.08-14.32-3.46,4.57-7.52,8.67-10.85,13.33s-5.95,10.11-5.94,15.84c0,.48.03,1,.3,1.4.67.98,2.18.63,3.23.09,12.96-6.6,18.09-24.33,31.85-29.03-2.96,5.43-5.61,11.02-7.94,16.75,3.24-.57,6-2.73,8.1-5.26,2.1-2.53,3.66-5.46,5.46-8.21,3.33-5.07,7.33-8.87,12.16-12.53-6.51-5.89-15.84-7.3-24.61-7.65-6.92-.28-13.88-.5-20.76.24-14.83,1.59-28.79,7.59-42.39,13.7-7.82,3.52-15.62,7.1-23.26,11-7.09,3.63-14.52,8.04-17.62,15.38,12.44-2.29,24.48-6.75,35.41-13.12-6.92,2.9-13.67,6.36-19.54,11.04-1.96,1.57-3.98,3.65-3.79,6.15,2.51.72,5.15-.26,7.57-1.24,4.51-1.81,9.04-3.63,13.28-6,6.75-3.76,12.71-8.87,19.63-12.3Z"/>
</svg>