<?xml version="1.0" encoding="UTF-8"?>
<svg id="Layer_1" data-name="Layer 1" xmlns="http://www.w3.org/2000/svg" viewBox="0 0 500 500">
  <defs>
    <style>
      .cls-1 {
        fill: #2b1f1f;
      }

      .cls-2 {
        fill: #3d2e2e;
      }

      .cls-3 {
        fill: #1c1924;
      }

      .cls-4 {
        fill: #ea850c;
      }

      .cls-5 {
        fill: #424705;
      }

      .cls-6 {
        fill: #c6260c;
      }

      .cls-7 {
        fill: #4f5906;
      }

      .cls-8 {
        fill: #7c5f4d;
      }

      .cls-9 {
        fill: #f5b404;
      }

      .cls-10 {
        fill: #9c6e56;
      }
    </style>
  </defs>
  <path class="cls-1" d="M331.53,127.53c-2.9-.53-5.72-1.53-8.3-2.96-.11,4.56.69,9.13,2.32,13.39-2.72-1.73-5.44-3.45-8.16-5.18-1,4.53.41,9.53,3.64,12.87-7.31-1.9-15.55.35-20.88,5.7-.76.76-1.48,1.62-1.72,2.67-1.13,4.97,7.61,5.44,10.58,9.59-7.18-2.44-15.75.03-20.54,5.91,3.45,1.79,6.91,3.58,10.36,5.37-9.53.5-18.83,4.58-25.64,11.26,3.31,2.65,7.25,4.52,11.4,5.38-5.86-.81-11.96.17-17.28,2.78-4.51,2.22-8.79,7.88-5.67,11.83,1.28,1.61,3.39,2.26,5.37,2.82,5.67,1.61,11.35,3.21,17.02,4.82,1.16.33,2.45.76,3,1.84.54,1.08-.51,2.77-1.6,2.25,3.16,1.97,6.58,3.54,10.14,4.64-4.46,2.98-3.74,10.27.04,14.09,3.78,3.81,9.36,5.07,14.62,6.15,1.23.25,2.54.5,3.71.05,1.42-.55,2.27-1.98,3-3.31,12.13-22.05,22.38-45.23,36.69-65.94,18.14-26.27,42.61-48.28,56.86-76.86,11.03-22.11,15.33-47.52,12.19-72.03-8.83,8.48-14.03,20.61-14.09,32.85-3.91-7.41-5.05-16.25-3.14-24.41-3.31-1.08-6.55,1.74-8.7,4.48-8.97,11.47-13.6,25.65-18.05,39.51-3.49,10.84-6.97,21.68-10.46,32.52-2.84-8.76-5.69-17.51-8.53-26.27-3.02,12.56-4.3,25.53-3.81,38.43-7.67.14-11.62-8.7-16.09-14.94-1.9-2.65-5.5-5.2-8.13-3.27-1.38,1.01-1.8,2.86-2.02,4.56-.84,6.5-.2,13.19,1.87,19.42Z"/>
  <path class="cls-5" d="M310.3,213.7c-3.89,2.02-7.79,4.05-11.68,6.07,5.92,2.41,11.85,4.82,17.77,7.22-3.51-1.38-7.37,2.7-6.76,6.41s4.26,6.3,7.96,7c9.08,1.71,17.53-5.45,22.42-13.3,7.95-12.78,10.51-28.2,17.49-41.53,6.9-13.17,18.15-24.02,31.56-30.43,2.33-1.11,4.76-2.12,6.75-3.76,2.12-1.75,3.62-4.11,5.08-6.44,10-15.89,20-31.77,30-47.66-5.23.46-10.18,3.4-13.07,7.78-4.33-6.31,7.69-16.4,1.83-21.31-3.13,1.33-5.89,3.51-7.9,6.25-.69-2.25-3.88-2.81-5.92-1.64-2.04,1.17-3.18,3.42-4.2,5.54-6.38,13.2-12.77,26.4-19.15,39.6-.47-2.7-.94-5.41-1.41-8.11-1.73-.17-3.4,1.46-3.26,3.19-2.27-1.68-5.7-.74-7.65,1.31-1.95,2.05-2.79,4.89-3.56,7.61-2.41-3.53-6.34-5.97-10.56-6.59-2.24,7.39-4.49,14.77-6.73,22.16-1.87-3.47-7.24-4.34-10.11-1.64-2.87,2.7-2.33,8.11,1.01,10.19-4.71,1.26-9.42,2.52-14.13,3.77.92,1.92,2.6,3.46,4.58,4.22-7.6,2.27-15.01,5.18-22.12,8.7-5.86,2.9-12.44,9.19-9.08,14.81,2.71.81,5.41,1.62,8.12,2.43-6.91-2.04-14.89.14-19.81,5.41-1.05,1.12-2.01,2.59-1.69,4.08.42,1.93,2.65,2.78,4.56,3.29,6.56,1.78,13.11,3.56,19.67,5.34Z"/>
  <path class="cls-4" d="M391.78,139.76c-5.55,6.83-11.09,13.65-16.64,20.48-.08-3-1.61-5.93-4.03-7.71-.79,2.77-1.57,5.54-2.36,8.31-4.4-1.87-9.82,3.43-8.05,7.87-7.93-2.87-17.6,4.51-16.92,12.91-3.79-.29-7.6-1.75-11.31-.9-3.71.84-6.73,5.74-4.04,8.44-2.12,1.89-5.21,2.06-7.89,3-2.68.94-5.34,3.69-4.22,6.3.39.92,1.18,1.59,1.94,2.24,3.78,3.19,7.57,6.38,11.35,9.57-1.56-.69-3.62.56-3.72,2.26-.1,1.7,1.81,3.19,3.44,2.67-1.77.53-3.54,1.07-5.32,1.6-.08,3.8,3.29,7.34,7.09,7.44-2.39.77-2.93,4.22-1.57,6.33s3.87,3.14,6.28,3.88c3.02.93,6.12,1.59,9.26,1.98-.41-5.19,2.42-10.04,5.27-14.4,14.35-21.92,31.98-41.7,52.12-58.46-1.75-2.12-5.59-1.88-7.06.45,6.15-5.92,11.49-12.68,15.81-20.04-4.44.29-8.77,2.09-12.1,5.04,2.5-1.91,4.06-5.25,3.23-8.28-.83-3.03-4.47-5.18-7.34-3.88-1.33.6-2.3,1.77-3.22,2.9Z"/>
  <g>
    <path class="cls-3" d="M192.4,325.47c-1.69.14-3.43.16-5.02-.44-1.58-.59-2.99-1.91-3.27-3.58-.28-1.67.9-3.57,2.58-3.71.02-.42-.54-.59-.96-.57-3.11.13-5.78,3.17-5.53,6.26.25,3.1,3.39,5.65,6.47,5.28-2.18.3-4.42.18-6.56-.36-2-.5-4.19-1.73-4.38-3.78-1.09,1.31-1.48,3.18-.99,4.82.49,1.64,1.83,2.99,3.46,3.49.97.3,2.01.3,3.03.25,1.75-.1,3.5-.38,5.19-.85-.91,1.17-2.22,2.01-3.66,2.37,2.69.57,5.53,0,8.03-1.15,2.5-1.14,4.72-2.81,6.89-4.51,8.11-6.39,15.82-13.58,21.04-22.5.43-.74.86-1.53.89-2.38.03-.86-.45-1.79-1.29-1.99-.99,2.36-2.49,4.47-3.98,6.55-3.41,4.79-6.87,9.63-11.36,13.41,1.03-1.32,1.79-2.85,2.22-4.47.28-1.05.41-2.22-.1-3.18-.3-.57-.79-1.01-1.33-1.37-1.18-.8-2.69-1.24-4.06-.82-1.36.42-2.43,1.89-2.08,3.27.59-1.12,2.24-1.5,3.26-.75.8.59,1.11,1.66,1.14,2.66.07,1.87-.65,3.76-1.95,5.11-1.95,2.02-4.9,2.68-7.7,2.92Z"/>
    <path class="cls-3" d="M216.62,330.09c-1.59.13-3.23.15-4.73-.41s-2.82-1.8-3.08-3.37.85-3.36,2.43-3.49c.02-.4-.51-.55-.9-.54-2.93.13-5.45,2.98-5.21,5.9.24,2.92,3.19,5.33,6.1,4.97-2.06.28-4.17.17-6.18-.34-1.88-.47-3.95-1.63-4.13-3.56-1.03,1.23-1.39,3-.94,4.54.46,1.54,1.72,2.82,3.26,3.29.92.28,1.9.29,2.85.23,1.65-.09,3.29-.36,4.89-.8-.86,1.1-2.09,1.9-3.45,2.23,2.53.54,5.21,0,7.57-1.08,2.36-1.07,4.45-2.64,6.49-4.25,7.64-6.02,14.9-12.8,19.82-21.19.41-.7.81-1.44.84-2.24s-.43-1.69-1.21-1.87c-.94,2.22-2.35,4.21-3.75,6.17-3.21,4.51-6.47,9.07-10.7,12.64.97-1.24,1.69-2.68,2.09-4.21.26-.99.38-2.09-.09-3-.28-.53-.75-.95-1.25-1.29-1.11-.75-2.54-1.17-3.82-.78-1.29.4-2.29,1.78-1.96,3.08.55-1.06,2.11-1.41,3.07-.7.76.56,1.04,1.57,1.08,2.51.06,1.76-.62,3.54-1.84,4.81-1.84,1.9-4.62,2.53-7.26,2.75Z"/>
    <path class="cls-7" d="M123.13,289.04c-9.1-1.97-18.76-1.27-27.47,2-.45.17-.94.4-1.08.85-.14.46.47,1.01.8.66-7.56,1.65-14.87,4.41-21.63,8.17-2.21,1.23-4.68,3.29-4.04,5.74,14.87-3.81,29.59-8.18,44.12-13.12,3.25-1.1,6.54-2.26,9.31-4.29Z"/>
    <path class="cls-9" d="M115.86,295.95c3.35-.1,6.61-.99,9.85-1.82,24.45-6.31,49.57-10.03,74.81-11.08.88-.04,2.06-.41,1.94-1.27-.05-.39.55-3.05.25-3.3-2.79-2.27-6.72-2.25-10.29-2.65-1.63-.18-3.26.07-4.88.31-11.68,1.78-23.36,3.55-35.04,5.33-3.38.51-6.76,1.03-10.1,1.77-8.94,1.97-17.52,5.55-25.22,10.51-.78.51-1.67,1.34-1.31,2.2Z"/>
    <path class="cls-9" d="M181.79,278.18c2.88-1.05,6.02-2.6,6.9-5.54-12.85-1.38-25.82.59-38.73.03-4.19-.18-8.38-.63-12.57-.66-4.37-.03-8.73.38-13.07.9-18.99,2.27-37.74,6.5-55.87,12.59-4.77,1.6-9.91,3.69-12.25,8.14,8.63,2,17.62,1.4,26.45.78,11.47-.8,22.94-1.59,34.4-2.39,4.04-.28,8.1-.56,12.1-1.17,3.6-.55,7.15-1.35,10.7-2.16,6.7-1.52,13.4-3.05,20.1-4.57,7.36-1.67,14.74-3.36,21.83-5.95Z"/>
    <path class="cls-7" d="M186.41,273.19c1.82-.28,3.71-.6,5.21-1.67,1.5-1.07,2.44-3.15,1.64-4.81-10.87,3-22.13,4.59-33.4,4.73-4.94.06-9.89-.15-14.82.18-6.09.41-12.09,1.66-18.1,2.76-16.88,3.08-33.97,4.98-51.12,5.68-12.4.51-24.97.4-36.98,3.54-2.63.69-5.56,1.84-6.46,4.41,7.5,1.41,15.18,1.49,22.82,1.43,13.84-.12,27.7-.7,41.43-2.41,5.29-.66,10.55-1.48,15.82-2.3,4.88-.76,9.75-1.52,14.63-2.28,12.66-1.97,25.32-3.95,37.99-5.92,7.12-1.11,14.24-2.22,21.36-3.33Z"/>
    <path class="cls-9" d="M191.48,265.38c-5.25.66-10.51,1.33-15.79,1.57-5.01.23-10.03.09-15.04-.13-21.9-.97-43.73-3.38-65.31-7.23-.37.73-.45,1.6-.23,2.38,3.66,3.95,9.46,4.87,14.81,5.54,28.85,3.6,58.39,6.21,86.76-.15,2.8-.63,5.77-1.45,7.67-3.61-4.28.54-8.57,1.08-12.85,1.62Z"/>
    <path class="cls-7" d="M90.83,279.8c9.82.43,19.68.76,29.47-.05,6.44-.54,12.82-1.57,19.2-2.6,17.85-2.89,35.7-5.78,53.55-8.67,1.15-.19,2.58-.68,2.63-1.84-41.1,2.78-82.31,4.03-123.51,3.75-3.16-.02-6.41-.04-9.38,1.06,1.61,3.57,5.66,5.31,9.46,6.25,6.06,1.51,12.34,1.82,18.58,2.09Z"/>
    <path class="cls-9" d="M409.47,241.71c-3.12-6-7.67-11.24-13.17-15.18-.69,1.57-10.33-1.08-11.99-1.49-14.74-3.66-24.54,5.51-39.66,6.91-11.49,1.07-49.35,3.17-60.6,5.69-43.51,9.74-59.34,12.31-98.1,34.34-1.34.76-2.88,2.19-2.15,3.55.38.7,1.22.98,1.98,1.19,3.35.91,6.77,1.55,10.22,1.92-.75.2-1.32.96-1.3,1.74,8.32,4.01,16.69,7.96,25.18,11.62-.35.6-.7,1.19-1.06,1.79-1.1,1.86-2.21,3.77-2.62,5.89-.3,1.57-.07,3.46,1.27,4.34.7.46,1.57.55,2.4.51,1.3-.06,2.57-.42,3.82-.78,5.02-1.43,10.04-2.86,15.07-4.28,1.33.47,2.66.93,3.99,1.38-.87,2.68-3.69,5.35-2.47,7.91.76,1.59,2.82,2.16,4.56,1.88,1.74-.28,3.31-1.18,4.97-1.79,3.28-1.2,7.09-1.33,10.03-3.03,17.87,4.33,36.48,5.96,54.56,2.88,8.55-1.45,16.9-3.94,25.01-7,10.16-3.82,19.96-8.53,29.75-13.24,4.27-2.05,8.57-4.12,12.38-6.95,3.02-2.24,5.68-4.92,8.68-7.18,4.3-3.24,9.23-5.58,13.5-8.85s8.02-7.83,8.45-13.2c.3-3.68-1-7.32-2.71-10.6Z"/>
    <path class="cls-6" d="M365.93,245.26c-1.01,3.64-1.89,7.38-1.63,11.15.26,3.77,1.82,7.61,4.88,9.82-.71.32-1.52.44-2.29.34,1.19,3.23,3.8,5.81,6.82,7.48s6.43,2.5,9.84,3c2.27.33,4.6.53,6.86.12,4.55-.81,8.56-4.18,10.14-8.53-2.25-.63-4.04-2.66-4.38-4.96.69-.27,1.05-1.19.71-1.85.45-.01.89-.03,1.34-.04.9-5.22.37-10.75-1.95-15.51-2.31-4.77-6.49-8.69-11.54-10.28s-10.93-.66-14.98,2.76c-1.01.85-1.9,1.85-2.54,3.01-.6,1.09-.95,2.3-1.28,3.5Z"/>
    <path class="cls-3" d="M386.52,277.34c-.06.36-.1.74.06,1.06.15.29.44.48.73.64,4.36,2.48,9.9,2.76,14.48.72,1.58-.7,3.2-1.89,3.39-3.61.17-1.52-.84-2.9-1.79-4.1-1.83-2.32-3.75-4.7-6.38-6.06-.6-.31-1.28-.57-1.94-.41-.55.12-.99.51-1.41.88-1.62,1.43-3.25,2.88-4.52,4.63-1.34,1.84-2.24,3.99-2.62,6.24Z"/>
    <path class="cls-8" d="M397.25,260.94c1.19-1.3,2.55-2.48,4.14-3.25,1.57-.77,3.33-1.13,5.08-1.04.72.04,1.44.15,2.08.48,1.06.54,1.78,1.6,2.14,2.73.44,1.37.42,2.85.39,4.29-.08,4.3-.17,8.63-1.18,12.81-1.01,4.18-3.03,8.24-6.37,10.95,1.11-3.09.61-6.59-.76-9.58-1.36-2.99-3.52-5.54-5.79-7.91-.77-.8-1.57-1.62-1.97-2.65-.91-2.35.53-4.96,2.23-6.82Z"/>
    <path class="cls-10" d="M378.23,244.24c3.15-1.59,7.14-1.4,10.12.49.88.56,1.69,1.27,2.17,2.2.49.94.59,2.03.69,3.09.18,1.95.36,3.89.55,5.84-4.07,1.39-8.75.84-12.38-1.45-1.85-2.63-2.55-6.04-1.89-9.19.05-.23.11-.47.26-.65.13-.15.31-.25.48-.34Z"/>
    <path class="cls-3" d="M387.48,251.15c-.14,1.56-1.9,2.62-3.44,2.38-1.36-.21-2.53-1.24-3.06-2.51-.53-1.27-.45-2.75.06-4.03.77-.1,1.54-.2,2.31-.3.7-.09,1.43-.17,2.07.11.97.43,1.41,1.53,1.74,2.54.19.59.37,1.19.32,1.81Z"/>
  </g>
  <path class="cls-2" d="M224.27,71.62c-2.27-14.47-1.13-29.47,3.32-43.43-5.03.12-9.4,3.88-11.71,8.35-2.31,4.47-2.96,9.59-3.57,14.58-1.53,12.5-3.05,25.01-4.58,37.51-4.99-7.59-7.74-16.63-7.84-25.72-3.17-1.41-6.03,2.5-7.13,5.79-3.22,9.65-4.41,19.97-3.45,30.09-3.55-.1-5.88-3.56-7.99-6.41-2.11-2.85-5.67-5.7-8.85-4.13-.16,9.65-.32,19.29-.48,28.94-2.21-4.14-9.43-.98-9.87,3.7s3.02,8.72,6.25,12.13c-3.95-1.03-8.14-2.05-12.04-.84-3.89,1.21-7.1,5.58-5.53,9.35.69,1.64,2.11,2.84,3.5,3.95,3.85,3.09,7.83,6.02,11.93,8.77-4.73-.89-9.47-1.77-14.2-2.66.1,2.96,1.92,5.8,4.56,7.12-2.3,0-4.59,0-6.89,0-2.25,3.87-.2,9.54,4,11.07-6.73,2.85-14.77,8.05-13.17,15.18.97,4.31,5.3,7,9.49,8.38s8.75,2.02,12.41,4.49c-3.75-.86-7.83,2.57-7.64,6.41s4.59,6.84,8.23,5.62c-2.7.68-3.09,4.77-1.25,6.86s4.81,2.7,7.56,3.17c5.94,1.03,11.88,2.06,17.81,3.08-3.01,1.77-5.32,4.71-6.33,8.07,4.97,1.31,10.14,1.87,15.27,1.64-3.04,1.37-5.27,4.38-5.68,7.68,7.33,1.36,14.66,2.73,21.99,4.09-1.53,2.27-3.06,4.54-4.59,6.8,5.46.21,10.93.42,16.39.63-2.63,1.02-5.36,2.11-7.26,4.2-1.9,2.09-2.66,5.5-.94,7.74,9.77.07,19.53-3.14,27.35-8.99,1.07-.8,2.13-1.68,2.77-2.85,1.46-2.66.41-5.94-.63-8.8-14.42-39.65-21.36-83.88-8.12-123.94,2.85-8.63,6.62-17.02,8.25-25.96,1.44-7.91,1.16-16.02.88-24.05-.64-17.96-1.27-35.93-1.91-53.89-2.19-.32-3.89,1.79-5,3.7-9.24,15.87-12.37,34.45-15.33,52.57Z"/>
  <path class="cls-7" d="M254.17,119.9c-.72-9.66-1.45-19.33-2.17-28.99-.63-8.35-1.46-17.26-6.67-23.82-2.34-.67-3.58,2.67-3.66,5.1-.37,10.76-.44,21.52-.23,32.28-5.46-5.85-9.85-12.69-12.92-20.08.54,8.27,1.07,16.53,1.61,24.8-5.73-4.81-12.65-8.21-19.96-9.8-1.44,6.33-1.21,13.04.68,19.25-2.02-2.87-5.29-4.84-8.78-5.28-.92,3.36-.22,7.12,1.83,9.92-1.73-.08-3.46-.16-5.2-.24-1.21,6.47.88,13.48,5.45,18.22-13.81-3.71-31.17,4.53-32.85,18.73-.13,1.06-.15,2.19.35,3.12.78,1.46,2.54,2.01,4.13,2.44,6.25,1.68,12.5,3.36,18.75,5.04-4.25-.2-8.52.08-12.71.82,1.74,1.58,3.47,3.15,5.21,4.73-4.36-.18-8.74,2.1-11.09,5.78,6,1.78,12,3.56,18,5.35-5.43,1.46-10.86,2.91-16.3,4.37.33,5.55,4.32,10.35,9.12,13.15s10.36,3.95,15.81,5.05c-3.15.95-5.12,4.73-4.11,7.86,1.02,3.13,4.83,5.03,7.94,3.95-1.04,2.48-.77,5.47.68,7.73,3.16.61,6.33,1.23,9.49,1.84-.24,1.31-.47,2.62-.71,3.93,5.49,1.2,11.16,1.56,16.76,1.08-1.62,4.09-3.24,8.17-4.86,12.26,5.67,1.24,11.5,1.69,17.29,1.34,7-.42,11.85-7.95,13.04-14.86,1.19-6.91-.02-13.97-.95-20.92-2.69-20.15-2.97-40.63-.81-60.85,1.17-10.97-1.36-22.27-2.18-33.27Z"/>
  <path class="cls-4" d="M253.36,135.71c-2.23.01-4.47.03-6.7.04-.62,2.49-.19,5.22,1.17,7.4-1.62.21-3.23.42-4.85.64-1.28,4.42,1.32,9.61,5.62,11.25-9.11,3.07-16.05,10.37-22.59,17.41-1.17,1.26-2.4,2.63-2.66,4.34s.97,3.73,2.69,3.61c-3.39.12-6.73,1.45-9.29,3.68,1.05,2.1,2.11,4.2,3.16,6.3-5.7,2.54-7.2,9.79-7.97,15.99-.27,2.2-.49,4.6.72,6.45,1.26,1.9,3.67,2.62,5.9,3.11,8.45,1.86,17.18,2.4,25.79,1.61-3-.39-6.04,2.21-6.12,5.23,2.91.24,5.76,1.03,8.37,2.33-3.01-.74-6.14,2.72-5.11,5.64,1.46.26,2.92.53,4.38.79-.83,3.76-1.66,7.53-2.48,11.29,2.66.38,5.32.76,7.98,1.14-3.9,2.63-1.98,9.64,2.51,11.06s9.43-1.6,11.71-5.72c2.4,6.48,13.6,6.45,15.96-.05-1.4,2.54,2.88,4.25,5.76,4.03l11.32-.86c-18.88-21.26-30.55-48.82-32.68-77.17-1.49-19.79.84-41.95-11.87-57.19-3.13,5.28-3.4,12.14-.71,17.66Z"/>
</svg>