<?xml version="1.0" encoding="UTF-8"?>
<svg id="Layer_1" data-name="Layer 1" xmlns="http://www.w3.org/2000/svg" viewBox="0 0 500 500">
  <defs>
    <style>
      .cls-1 {
        fill: #2b1f1f;
      }

      .cls-2 {
        fill: #3d2e2e;
      }

      .cls-3 {
        fill: #1c1924;
      }

      .cls-4 {
        fill: #ea850c;
      }

      .cls-5 {
        fill: #c6260c;
      }

      .cls-6 {
        fill: #4f5906;
      }

      .cls-7 {
        fill: #7c5f4d;
      }

      .cls-8 {
        fill: #f5b404;
      }

      .cls-9 {
        fill: #9c6e56;
      }
    </style>
  </defs>
  <path class="cls-1" d="M399.89,277.12c-5.05,4.05-11.77,5.1-17.91,7.14-1.28.42-2.75,1.16-2.86,2.5-.08.96.6,1.81,1.25,2.53,4.92,5.53,9.87,11.09,15.62,15.76,6.87,5.58,15.11,10.16,19.18,18.02.46.88.9,1.84,1.76,2.34.61.35,1.35.4,2.06.42,11.02.29,21.53-5.51,29.15-13.47,7.62-7.96,12.76-17.94,17.42-27.93,1.68-3.61,3.34-7.3,3.9-11.24.56-3.94-.11-8.23-2.65-11.29-.1-.12-.21-.25-.37-.27-.23-.04-.43.14-.6.31-11.97,12.59-21.14,28-35.04,38.42,4.87-4.8,9.84-9.73,12.77-15.91,2.93-6.18,3.47-13.95-.42-19.57-.25-.35-.54-.72-.95-.83-.52-.14-1.06.16-1.5.47-9.26,6.48-11.49,20.55-21.57,25.67,3.49-4.55,6.41-9.53,8.67-14.8-2.93.04-5.33,2.2-7.64,4.01-5.43,4.27-11.88,7.24-18.65,8.57,1.98-3.92,3.48-8.09,4.43-12.37-.77-.85-2.15-.89-3.21-.45-1.06.44-1.92,1.26-2.81,1.98Z"/>
  <path class="cls-2" d="M343.08,323.29c.3-.7.33-1.61.99-2,.44,1.89,1.33,3.87,3.06,4.74,1.74.87,4.38-.09,4.49-2.03,1.68,4.73,7.1,7.04,12.09,7.58,1.27.14,2.63.17,3.72-.47,1.1-.65,1.73-2.22.98-3.24,4.22,3.37,10.37,1.92,15.65,3.04,3.55.75,6.89,2.74,10.52,2.61.78-1.1.96-2.61.44-3.86,3.16,1.25,6.47,2.11,9.84,2.55.99.13,2.05.21,2.92-.28.87-.49,1.36-1.75.72-2.51,4.62.86,9.44.62,13.96-.69.58-.17,1.27-.53,1.21-1.13-.04-.34-.32-.59-.59-.81-.88-.71-1.75-1.42-2.63-2.14,4.25,1.51,9.4-.11,12.02-3.78.52-.73.97-1.64.72-2.51-.38-1.31-2.01-1.7-3.36-1.86-5.95-.69-11.92-1.18-17.9-1.46-3.35-.16-6.7-.26-10.03-.67-4.21-.53-8.33-1.56-12.45-2.59-7.75-1.94-15.51-3.89-23.26-5.83-2.19-.55-4.38-1.1-6.52-1.81-2.36-.79-4.65-1.77-6.93-2.75-6.7-2.88-13.41-5.76-20.11-8.64-4.01,1.66-6.99,5.25-8.81,9.19-1.83,3.94-2.65,8.26-3.45,12.54,1.33,1.01,3.25-.12,4.29-1.42,1.05-1.31,2.03-2.96,3.68-3.22-.42,2.75-.83,5.63.06,8.27.88,2.64,3.49,4.93,6.24,4.46.46-1.72.93-3.44,1.39-5.16.08,2.14.25,4.47,1.66,6.08,1.41,1.62,4.54,1.78,5.39-.19Z"/>
  <path class="cls-6" d="M392.83,291.14c-15.04-9.98-35.28-11.65-51.69-4.15-3.56,1.63-7.04,3.74-9.35,6.91s-3.24,7.57-1.5,11.08c2.04.99,4.31-.8,5.7-2.6s2.94-3.96,5.2-3.97c-.73,2.36-.98,4.86-.75,7.31.09,1,.29,2.05.95,2.81s1.9,1.11,2.69.49c.4-.31.61-.79.82-1.25.81-1.82,1.61-3.65,2.42-5.47.57,1.64,1.13,3.28,1.7,4.93.22.65,1.12,1.36,1.39.74,2.27,4.95,6.67,8.88,11.84,10.6.92.31,2.15.45,2.68-.37.26-.41.25-.92.21-1.41-.14-1.78-.48-3.54-1.02-5.24,4.62,4.63,10.86,7.61,17.37,8.28-.07-.57-.13-1.14-.2-1.72,1.51.48,3.02.96,4.53,1.44.72.23,1.53.45,2.2.1.77-.41,1-1.47.74-2.3-.26-.83-.88-1.5-1.49-2.13,7.27,4.8,16.11,7.16,24.81,6.63-.66-1.35-1.63-2.55-2.83-3.46,7.72,2.83,16.47,2.71,24.11-.33-.95-1.13-2.29-1.94-3.74-2.26,1.87-.15,3.75-.73,5.17-1.94,1.42-1.21,2.32-3.14,1.98-4.98-10.41.79-21.02-1.24-30.41-5.81,2.47-.14,4.94-.17,7.41-.1.26-.5.52-1.01.78-1.51-4.11-.99-8.27-1.99-12.03-3.93-3.44-1.77-6.45-4.27-9.67-6.41Z"/>
  <path class="cls-4" d="M377.31,297.28c-.35-2.46-.71-4.92-1.06-7.38-.86-.14-1.78.29-2.22,1.03-.43-.16-.86-.32-1.29-.48.28-1.18.56-2.42.27-3.59-.29-1.18-1.36-2.26-2.57-2.12-.3.03-.62.14-.89.01-.3-.14-.42-.5-.5-.82-1.3-5.31,1.22-11.33,5.92-14.12,4.59,5.42,10.4,9.66,15.23,14.86,4.83,5.2,8.77,11.89,8.25,18.97-3.22-1.87-6.18-4.19-8.76-6.88.78,2.04,1.44,4.13,1.97,6.25.17.67.28,1.5-.25,1.95-.38.32-.93.31-1.42.22-4.61-.79-7.3-5.5-9.34-9.7-1.11.6-2.22,1.2-3.34,1.8Z"/>
  <g>
    <path class="cls-3" d="M192.82,325.29c-1.69.14-3.43.16-5.02-.44-1.58-.59-2.99-1.91-3.27-3.58s.9-3.57,2.58-3.71c.02-.42-.54-.59-.96-.57-3.11.13-5.78,3.17-5.53,6.26.25,3.1,3.39,5.65,6.47,5.28-2.18.3-4.42.18-6.56-.36-2-.5-4.19-1.73-4.38-3.78-1.09,1.31-1.48,3.18-.99,4.82.49,1.64,1.83,2.99,3.46,3.49.97.3,2.01.31,3.03.25,1.75-.1,3.5-.38,5.19-.85-.91,1.17-2.22,2.01-3.66,2.37,2.69.57,5.53,0,8.03-1.15s4.72-2.81,6.89-4.51c8.11-6.39,15.82-13.58,21.04-22.5.43-.74.86-1.53.89-2.38.03-.86-.45-1.79-1.29-1.99-.99,2.36-2.49,4.47-3.98,6.55-3.41,4.79-6.87,9.63-11.36,13.41,1.03-1.32,1.79-2.85,2.22-4.47.28-1.05.41-2.22-.1-3.18-.3-.57-.79-1.01-1.33-1.37-1.18-.8-2.69-1.24-4.06-.82s-2.43,1.89-2.08,3.27c.59-1.12,2.24-1.5,3.26-.75.8.59,1.11,1.66,1.14,2.66.07,1.87-.65,3.76-1.95,5.11-1.95,2.02-4.9,2.68-7.7,2.92Z"/>
    <path class="cls-3" d="M217.04,329.91c-1.59.13-3.23.15-4.73-.41-1.49-.56-2.82-1.8-3.08-3.37s.85-3.36,2.43-3.49c.02-.4-.51-.55-.9-.54-2.93.13-5.45,2.98-5.21,5.9.24,2.92,3.19,5.33,6.1,4.97-2.06.28-4.17.17-6.18-.34-1.88-.47-3.95-1.63-4.13-3.56-1.03,1.23-1.39,3-.94,4.54.46,1.54,1.72,2.82,3.26,3.29.92.28,1.9.29,2.85.23,1.65-.09,3.29-.36,4.89-.8-.86,1.1-2.09,1.9-3.45,2.23,2.53.54,5.21,0,7.57-1.08,2.36-1.07,4.45-2.64,6.49-4.25,7.64-6.02,14.9-12.8,19.82-21.19.41-.7.81-1.44.84-2.24.03-.81-.43-1.69-1.21-1.87-.94,2.22-2.35,4.21-3.75,6.17-3.21,4.51-6.47,9.07-10.7,12.64.97-1.24,1.69-2.68,2.09-4.21.26-.99.38-2.09-.09-3-.28-.53-.75-.95-1.25-1.29-1.11-.75-2.54-1.17-3.82-.78s-2.29,1.78-1.96,3.08c.55-1.06,2.11-1.41,3.07-.7.76.56,1.04,1.57,1.08,2.51.06,1.76-.62,3.54-1.84,4.81-1.84,1.9-4.62,2.53-7.26,2.75Z"/>
    <path class="cls-6" d="M123.54,288.86c-9.1-1.97-18.76-1.27-27.47,2-.45.17-.94.4-1.08.85-.14.46.47,1.01.8.66-7.56,1.65-14.87,4.41-21.63,8.17-2.21,1.23-4.68,3.29-4.04,5.74,14.87-3.81,29.59-8.19,44.12-13.12,3.25-1.1,6.54-2.26,9.31-4.29Z"/>
    <path class="cls-8" d="M116.27,295.76c3.35-.1,6.61-.99,9.85-1.82,24.45-6.31,49.57-10.03,74.81-11.08.88-.04,2.06-.41,1.94-1.27-.05-.39.55-3.05.25-3.3-2.79-2.27-6.72-2.25-10.29-2.65-1.63-.18-3.26.07-4.88.31-11.68,1.78-23.36,3.55-35.04,5.33-3.38.51-6.76,1.03-10.1,1.77-8.94,1.97-17.52,5.55-25.22,10.51-.78.5-1.67,1.34-1.31,2.2Z"/>
    <path class="cls-8" d="M182.21,277.99c2.88-1.05,6.02-2.6,6.9-5.54-12.85-1.38-25.82.59-38.73.03-4.19-.18-8.38-.63-12.57-.66-4.37-.03-8.73.38-13.07.9-18.99,2.27-37.74,6.5-55.87,12.59-4.77,1.6-9.91,3.69-12.25,8.14,8.63,2,17.62,1.4,26.45.78,11.47-.8,22.94-1.59,34.4-2.39,4.04-.28,8.1-.56,12.1-1.17,3.6-.55,7.15-1.35,10.7-2.16,6.7-1.52,13.4-3.05,20.1-4.57,7.36-1.67,14.74-3.36,21.83-5.95Z"/>
    <path class="cls-6" d="M186.83,273.01c1.82-.28,3.71-.6,5.21-1.67s2.44-3.15,1.64-4.81c-10.87,3-22.13,4.59-33.4,4.73-4.94.06-9.89-.15-14.82.18-6.09.41-12.09,1.66-18.1,2.76-16.88,3.08-33.97,4.98-51.12,5.68-12.4.51-24.97.4-36.98,3.54-2.63.69-5.56,1.84-6.46,4.41,7.5,1.41,15.18,1.49,22.82,1.43,13.84-.12,27.7-.7,41.43-2.41,5.29-.66,10.55-1.48,15.82-2.3,4.88-.76,9.75-1.52,14.63-2.28,12.66-1.97,25.32-3.95,37.99-5.92,7.12-1.11,14.24-2.22,21.36-3.33Z"/>
    <path class="cls-8" d="M191.9,265.2c-5.25.66-10.51,1.33-15.79,1.57-5.01.23-10.03.09-15.04-.13-21.9-.97-43.73-3.38-65.31-7.23-.37.73-.45,1.6-.23,2.38,3.66,3.95,9.46,4.87,14.81,5.54,28.84,3.6,58.39,6.21,86.76-.15,2.8-.63,5.77-1.45,7.67-3.61-4.28.54-8.57,1.08-12.85,1.63Z"/>
    <path class="cls-6" d="M91.24,279.62c9.82.43,19.68.76,29.47-.05,6.44-.54,12.82-1.57,19.2-2.6,17.85-2.89,35.7-5.78,53.55-8.67,1.15-.19,2.58-.68,2.63-1.84-41.1,2.78-82.31,4.03-123.51,3.75-3.16-.02-6.41-.04-9.38,1.06,1.61,3.57,5.66,5.31,9.46,6.25,6.06,1.51,12.34,1.82,18.58,2.09Z"/>
    <path class="cls-8" d="M409.89,241.52c-3.12-6-7.67-11.24-13.17-15.18-.69,1.57-10.33-1.08-11.99-1.49-14.74-3.66-24.54,5.51-39.66,6.91-11.49,1.07-49.35,3.17-60.6,5.69-43.51,9.74-59.34,12.31-98.1,34.34-1.34.76-2.88,2.19-2.15,3.55.38.7,1.22.98,1.98,1.19,3.35.91,6.77,1.55,10.22,1.92-.75.2-1.32.96-1.3,1.74,8.32,4.01,16.69,7.96,25.18,11.62-.35.6-.7,1.19-1.06,1.79-1.1,1.86-2.21,3.77-2.62,5.89-.3,1.57-.07,3.46,1.27,4.34.7.46,1.57.55,2.4.51,1.3-.06,2.57-.42,3.82-.78,5.02-1.43,10.04-2.86,15.07-4.28,1.33.47,2.66.93,3.99,1.38-.87,2.68-3.69,5.35-2.47,7.91.76,1.59,2.82,2.16,4.56,1.88s3.31-1.18,4.97-1.79c3.28-1.2,7.09-1.33,10.03-3.03,17.87,4.33,36.48,5.96,54.56,2.88,8.55-1.45,16.9-3.94,25.01-7,10.16-3.82,19.96-8.53,29.75-13.24,4.27-2.05,8.57-4.12,12.38-6.95,3.02-2.24,5.68-4.92,8.68-7.18,4.3-3.24,9.23-5.58,13.5-8.85s8.02-7.83,8.45-13.2c.3-3.68-1-7.32-2.71-10.6Z"/>
    <path class="cls-5" d="M366.34,245.08c-1.01,3.64-1.89,7.38-1.63,11.15.26,3.77,1.82,7.61,4.88,9.82-.71.32-1.52.44-2.29.34,1.19,3.23,3.8,5.81,6.82,7.48,3.02,1.67,6.43,2.5,9.84,3,2.27.33,4.6.53,6.86.12,4.55-.81,8.56-4.18,10.14-8.53-2.25-.63-4.04-2.66-4.38-4.96.69-.27,1.05-1.19.71-1.85.45-.01.89-.03,1.34-.04.9-5.22.37-10.75-1.95-15.51-2.31-4.77-6.49-8.69-11.54-10.28-5.05-1.59-10.93-.66-14.98,2.76-1.01.85-1.9,1.85-2.54,3.01-.6,1.1-.95,2.3-1.28,3.5Z"/>
    <path class="cls-3" d="M386.93,277.16c-.06.36-.1.74.06,1.06.15.29.44.48.73.64,4.36,2.48,9.9,2.76,14.48.72,1.58-.7,3.2-1.89,3.39-3.61.17-1.52-.84-2.9-1.79-4.1-1.83-2.32-3.75-4.7-6.38-6.06-.6-.31-1.28-.57-1.94-.41-.55.12-.99.51-1.41.88-1.62,1.43-3.25,2.88-4.52,4.63-1.34,1.84-2.24,4-2.62,6.24Z"/>
    <path class="cls-7" d="M397.66,260.76c1.19-1.3,2.55-2.48,4.14-3.25,1.57-.77,3.33-1.13,5.08-1.04.72.04,1.44.15,2.08.48,1.06.54,1.78,1.6,2.14,2.73.44,1.37.42,2.85.39,4.29-.08,4.3-.17,8.63-1.18,12.81s-3.03,8.24-6.37,10.95c1.11-3.09.61-6.59-.76-9.58-1.36-2.99-3.52-5.54-5.79-7.91-.77-.8-1.57-1.62-1.97-2.65-.91-2.35.53-4.96,2.23-6.82Z"/>
    <path class="cls-9" d="M377.36,244.35c3.15-1.59,7.14-1.4,10.12.49.88.56,1.69,1.27,2.17,2.2.49.94.59,2.03.69,3.09.18,1.95.36,3.89.55,5.84-4.07,1.39-8.75.84-12.38-1.45-1.85-2.63-2.55-6.04-1.89-9.19.05-.23.11-.47.26-.65.13-.15.31-.25.48-.34Z"/>
    <path class="cls-3" d="M387.89,250.96c-.14,1.56-1.9,2.62-3.44,2.38-1.36-.21-2.53-1.24-3.06-2.51s-.45-2.75.06-4.03c.77-.1,1.54-.2,2.31-.3.7-.09,1.43-.17,2.07.11.97.43,1.42,1.53,1.74,2.54.19.59.37,1.2.32,1.81Z"/>
  </g>
  <path class="cls-2" d="M187.58,325.91c5.67-.22,11.24-1.57,16.88-2.14,3.36-.34,6.74-.4,10.12-.46,9.83-.18,19.71-.35,29.44,1.04,11.03,1.57,21.75,5.13,32.86,6.04,1.18.1,2.38.16,3.52-.16,3.01-.86,4.66-4.29,4.56-7.41s-1.55-6.03-2.92-8.84c-5.64-11.59-10.48-23.57-14.49-35.83-.66-2.01-1.3-4.05-2.41-5.84-2.48-4.01-7.05-6.38-11.71-7.12-4.65-.75-9.41-.07-14.03.87-8.12,1.65-16.07,4.1-23.71,7.31,4.97,1.2,10.02,2.06,15.1,2.57-11.6-.47-23.31,2.05-33.69,7.26-.68.34-1.46.84-1.49,1.6-.04.99,1.13,1.51,2.09,1.75,3.54.92,7.07,1.84,10.61,2.76-2.77.08-5.53.15-8.3.23-.43.01-.88.04-1.21.3-.58.46-.44,1.43.07,1.96.52.52,1.27.72,1.99.89-5.12,1.66-10.64,3.62-13.58,8.14-.23.35-.44.8-.26,1.17.15.3.5.44.82.54,2.21.72,4.48,1.25,6.78,1.58-6.53.93-12.63,4.54-16.58,9.82-1.27,1.7-2.37,3.74-2.08,5.84,5.1,1.01,10.44.76,15.41-.73-2.33.31-4.6,1.03-6.68,2.12-.66.34-1.34.77-1.62,1.46-.42,1.03.26,2.25,1.24,2.78.97.54,2.14.55,3.25.51Z"/>
  <path class="cls-6" d="M261.09,316.22c4.59,4.9,11.36,7.67,18.06,7.39.48,1.04-.24,2.32-1.26,2.86-1.01.54-2.22.54-3.36.52-2.48-.03-4.96-.07-7.44-.1-.85-.01-1.81.02-2.41.62-.84.84-.46,2.36.44,3.12s2.14.96,3.31,1.13c2.33.34,4.65.68,6.98,1.02,1.12.16,2.58.76,2.37,1.88-.07.38-.35.7-.65.94-1.22,1-2.9,1.22-4.34,1.88-1.44.67-2.75,2.28-2.1,3.72.32.7,1.01,1.14,1.7,1.48,5.27,2.59,12.26.94,15.81-3.73-1.62,1.29-2.88,3.02-3.61,4.96,4.06.38,7.39-3.07,9.75-6.4,14.24-19.98,18.6-46.65,11.47-70.12-.66-2.18-1.42-4.33-2.4-6.39-1.91-3.98-4.76-7.94-4.27-12.33-20.3,5.37-40.61,10.74-60.91,16.11,1.04,1.64,3.32,1.84,5.26,1.86,5.73.06,8.1.79,13.83.84-4.88.7-6.17,2.27-9.76,5.66,1.53.47,3.06.93,4.59,1.4-3.36,1.61-5.83,4.97-6.34,8.66,4.86,1.06,9.92,1.18,14.82.34-7.1,2.01-14.97,5.16-17.54,12.09,5.21,1.25,10.7,1.33,15.94.24-1.49,1.32-2.7,2.95-3.53,4.75,2.38.25,4.76.49,7.14.74-2.02.45-3.87,1.62-5.15,3.24,1.65.57,3.3,1.15,4.95,1.73-1.41.78-.32,3.03,1.13,3.75,1.44.72,3.34,1.13,3.85,2.66.47,1.38-.64,2.9-2.01,3.41-1.37.51-2.89.29-4.33.07Z"/>
  <path class="cls-4" d="M286.44,275.19c-.66-5.08,2.05-10.44,6.53-12.92-2.87.34-5.81.06-8.55-.84-.7-3.68,3.94-5.85,7.61-6.65-3.97.48-7.83,1.78-11.29,3.8-.88-.31-1.1-1.55-.65-2.37.44-.82,1.31-1.31,2.14-1.74,11.25-5.9,23.54-9.79,36.13-11.45-.58,7.36.33,14.83,2.67,21.82,1.32,3.93,3.1,7.87,2.89,12-.15,2.85-1.24,5.56-2.32,8.21-1.95,4.78-3.9,9.57-5.85,14.35-2.87-1.87-3.12-5.9-3.08-9.33.6,8.64-2.46,17.48-8.28,23.9.04-3.65.08-7.29.12-10.94-4.3,2.61-9.22,4.19-14.24,4.58.1-3.93,1.44-7.82,3.8-10.97-1.22.61-2.45,1.23-3.67,1.84-.18-2.14.22-4.33,1.16-6.27-1.81,1.81-5.19-.18-5.57-2.71-.38-2.53,1.1-4.92,2.51-7.04,1.66-2.5,3.33-5.01,4.99-7.51-2.36.07-4.71.15-7.07.22Z"/>
  <path class="cls-1" d="M180.48,293.93c-1.1-1.8-2.19-3.65-3.76-5.05s-3.76-2.29-5.81-1.79c-.2,13.09,5.84,26.15,15.95,34.47-11.16-1.46-20.97-10.22-32.18-9.21-.51,3.34,2.38,6.12,5,8.25,6.81,5.54,14,11.26,22.61,12.99,5.32,1.07,10.82.52,16.22,0,21.64-2.06,43.57-3.56,65.05-.25,5.96.92,12.6,2.07,17.6-1.3-3.34,1.35-7.23.8-10.45-.83-3.22-1.62-5.84-4.22-8.13-7-8.14-9.89-12.58-22.3-15.66-34.74-3.09-12.43-4.99-25.17-8.83-37.39-.86-2.72-2.81-6.01-5.58-5.35-6.76,20.63-3.67,43.38,3.54,63.86-7.43-4.69-11.96-12.91-14.53-21.32-2.57-8.4-3.47-17.22-5.44-25.78-.36-1.58-1.16-3.5-2.79-3.54-1.46-.04-2.4,1.52-2.93,2.88-4.88,12.58-2.58,26.67-.22,39.96-2.75-8.12-5.5-16.23-8.25-24.35-1.26-.72-2.95-.13-3.9.97-.95,1.09-1.33,2.56-1.63,3.98-2.59,12.53-.44,25.98,5.93,37.08-1.92.24-3.53-1.36-4.78-2.84-6.27-7.45-11.97-15.39-17.03-23.71Z"/>
</svg>